%TF.GenerationSoftware,KiCad,Pcbnew,5.1.12-84ad8e8a86~92~ubuntu20.04.1*%
%TF.CreationDate,2021-11-29T16:52:28+01:00*%
%TF.ProjectId,RGBchristmasStar,52474263-6872-4697-9374-6d6173537461,rev?*%
%TF.SameCoordinates,Original*%
%TF.FileFunction,Legend,Bot*%
%TF.FilePolarity,Positive*%
%FSLAX46Y46*%
G04 Gerber Fmt 4.6, Leading zero omitted, Abs format (unit mm)*
G04 Created by KiCad (PCBNEW 5.1.12-84ad8e8a86~92~ubuntu20.04.1) date 2021-11-29 16:52:28*
%MOMM*%
%LPD*%
G01*
G04 APERTURE LIST*
%ADD10C,0.150000*%
%ADD11C,0.010000*%
%ADD12C,0.120000*%
G04 APERTURE END LIST*
D10*
X185360952Y-88794761D02*
X185360952Y-86794761D01*
X184503809Y-88794761D02*
X184503809Y-87747142D01*
X184599047Y-87556666D01*
X184789523Y-87461428D01*
X185075238Y-87461428D01*
X185265714Y-87556666D01*
X185360952Y-87651904D01*
X183837142Y-87461428D02*
X183075238Y-87461428D01*
X183551428Y-86794761D02*
X183551428Y-88509047D01*
X183456190Y-88699523D01*
X183265714Y-88794761D01*
X183075238Y-88794761D01*
X182694285Y-87461428D02*
X181932380Y-87461428D01*
X182408571Y-86794761D02*
X182408571Y-88509047D01*
X182313333Y-88699523D01*
X182122857Y-88794761D01*
X181932380Y-88794761D01*
X181265714Y-87461428D02*
X181265714Y-89461428D01*
X181265714Y-87556666D02*
X181075238Y-87461428D01*
X180694285Y-87461428D01*
X180503809Y-87556666D01*
X180408571Y-87651904D01*
X180313333Y-87842380D01*
X180313333Y-88413809D01*
X180408571Y-88604285D01*
X180503809Y-88699523D01*
X180694285Y-88794761D01*
X181075238Y-88794761D01*
X181265714Y-88699523D01*
X179551428Y-88699523D02*
X179360952Y-88794761D01*
X178980000Y-88794761D01*
X178789523Y-88699523D01*
X178694285Y-88509047D01*
X178694285Y-88413809D01*
X178789523Y-88223333D01*
X178980000Y-88128095D01*
X179265714Y-88128095D01*
X179456190Y-88032857D01*
X179551428Y-87842380D01*
X179551428Y-87747142D01*
X179456190Y-87556666D01*
X179265714Y-87461428D01*
X178980000Y-87461428D01*
X178789523Y-87556666D01*
X177837142Y-88604285D02*
X177741904Y-88699523D01*
X177837142Y-88794761D01*
X177932380Y-88699523D01*
X177837142Y-88604285D01*
X177837142Y-88794761D01*
X177837142Y-87556666D02*
X177741904Y-87651904D01*
X177837142Y-87747142D01*
X177932380Y-87651904D01*
X177837142Y-87556666D01*
X177837142Y-87747142D01*
X175456190Y-86699523D02*
X177170476Y-89270952D01*
X173360952Y-86699523D02*
X175075238Y-89270952D01*
X171837142Y-87461428D02*
X171837142Y-89080476D01*
X171932380Y-89270952D01*
X172027619Y-89366190D01*
X172218095Y-89461428D01*
X172503809Y-89461428D01*
X172694285Y-89366190D01*
X171837142Y-88699523D02*
X172027619Y-88794761D01*
X172408571Y-88794761D01*
X172599047Y-88699523D01*
X172694285Y-88604285D01*
X172789523Y-88413809D01*
X172789523Y-87842380D01*
X172694285Y-87651904D01*
X172599047Y-87556666D01*
X172408571Y-87461428D01*
X172027619Y-87461428D01*
X171837142Y-87556666D01*
X170884761Y-88794761D02*
X170884761Y-87461428D01*
X170884761Y-86794761D02*
X170980000Y-86890000D01*
X170884761Y-86985238D01*
X170789523Y-86890000D01*
X170884761Y-86794761D01*
X170884761Y-86985238D01*
X170218095Y-87461428D02*
X169456190Y-87461428D01*
X169932380Y-86794761D02*
X169932380Y-88509047D01*
X169837142Y-88699523D01*
X169646666Y-88794761D01*
X169456190Y-88794761D01*
X168789523Y-88794761D02*
X168789523Y-86794761D01*
X167932380Y-88794761D02*
X167932380Y-87747142D01*
X168027619Y-87556666D01*
X168218095Y-87461428D01*
X168503809Y-87461428D01*
X168694285Y-87556666D01*
X168789523Y-87651904D01*
X166122857Y-87461428D02*
X166122857Y-88794761D01*
X166980000Y-87461428D02*
X166980000Y-88509047D01*
X166884761Y-88699523D01*
X166694285Y-88794761D01*
X166408571Y-88794761D01*
X166218095Y-88699523D01*
X166122857Y-88604285D01*
X165170476Y-88794761D02*
X165170476Y-86794761D01*
X165170476Y-87556666D02*
X164980000Y-87461428D01*
X164599047Y-87461428D01*
X164408571Y-87556666D01*
X164313333Y-87651904D01*
X164218095Y-87842380D01*
X164218095Y-88413809D01*
X164313333Y-88604285D01*
X164408571Y-88699523D01*
X164599047Y-88794761D01*
X164980000Y-88794761D01*
X165170476Y-88699523D01*
X163360952Y-88604285D02*
X163265714Y-88699523D01*
X163360952Y-88794761D01*
X163456190Y-88699523D01*
X163360952Y-88604285D01*
X163360952Y-88794761D01*
X161551428Y-88699523D02*
X161741904Y-88794761D01*
X162122857Y-88794761D01*
X162313333Y-88699523D01*
X162408571Y-88604285D01*
X162503809Y-88413809D01*
X162503809Y-87842380D01*
X162408571Y-87651904D01*
X162313333Y-87556666D01*
X162122857Y-87461428D01*
X161741904Y-87461428D01*
X161551428Y-87556666D01*
X160408571Y-88794761D02*
X160599047Y-88699523D01*
X160694285Y-88604285D01*
X160789523Y-88413809D01*
X160789523Y-87842380D01*
X160694285Y-87651904D01*
X160599047Y-87556666D01*
X160408571Y-87461428D01*
X160122857Y-87461428D01*
X159932380Y-87556666D01*
X159837142Y-87651904D01*
X159741904Y-87842380D01*
X159741904Y-88413809D01*
X159837142Y-88604285D01*
X159932380Y-88699523D01*
X160122857Y-88794761D01*
X160408571Y-88794761D01*
X158884761Y-88794761D02*
X158884761Y-87461428D01*
X158884761Y-87651904D02*
X158789523Y-87556666D01*
X158599047Y-87461428D01*
X158313333Y-87461428D01*
X158122857Y-87556666D01*
X158027619Y-87747142D01*
X158027619Y-88794761D01*
X158027619Y-87747142D02*
X157932380Y-87556666D01*
X157741904Y-87461428D01*
X157456190Y-87461428D01*
X157265714Y-87556666D01*
X157170476Y-87747142D01*
X157170476Y-88794761D01*
X154789523Y-86699523D02*
X156503809Y-89270952D01*
X154313333Y-87461428D02*
X153837142Y-88794761D01*
X153360952Y-87461428D01*
X151741904Y-88794761D02*
X151741904Y-87747142D01*
X151837142Y-87556666D01*
X152027619Y-87461428D01*
X152408571Y-87461428D01*
X152599047Y-87556666D01*
X151741904Y-88699523D02*
X151932380Y-88794761D01*
X152408571Y-88794761D01*
X152599047Y-88699523D01*
X152694285Y-88509047D01*
X152694285Y-88318571D01*
X152599047Y-88128095D01*
X152408571Y-88032857D01*
X151932380Y-88032857D01*
X151741904Y-87937619D01*
X149932380Y-88699523D02*
X150122857Y-88794761D01*
X150503809Y-88794761D01*
X150694285Y-88699523D01*
X150789523Y-88604285D01*
X150884761Y-88413809D01*
X150884761Y-87842380D01*
X150789523Y-87651904D01*
X150694285Y-87556666D01*
X150503809Y-87461428D01*
X150122857Y-87461428D01*
X149932380Y-87556666D01*
X148218095Y-87461428D02*
X148218095Y-88794761D01*
X149075238Y-87461428D02*
X149075238Y-88509047D01*
X148980000Y-88699523D01*
X148789523Y-88794761D01*
X148503809Y-88794761D01*
X148313333Y-88699523D01*
X148218095Y-88604285D01*
X146408571Y-87461428D02*
X146408571Y-88794761D01*
X147265714Y-87461428D02*
X147265714Y-88509047D01*
X147170476Y-88699523D01*
X146980000Y-88794761D01*
X146694285Y-88794761D01*
X146503809Y-88699523D01*
X146408571Y-88604285D01*
X145456190Y-88794761D02*
X145456190Y-87461428D01*
X145456190Y-87651904D02*
X145360952Y-87556666D01*
X145170476Y-87461428D01*
X144884761Y-87461428D01*
X144694285Y-87556666D01*
X144599047Y-87747142D01*
X144599047Y-88794761D01*
X144599047Y-87747142D02*
X144503809Y-87556666D01*
X144313333Y-87461428D01*
X144027619Y-87461428D01*
X143837142Y-87556666D01*
X143741904Y-87747142D01*
X143741904Y-88794761D01*
X142884761Y-88699523D02*
X142599047Y-88794761D01*
X142122857Y-88794761D01*
X141932380Y-88699523D01*
X141837142Y-88604285D01*
X141741904Y-88413809D01*
X141741904Y-88223333D01*
X141837142Y-88032857D01*
X141932380Y-87937619D01*
X142122857Y-87842380D01*
X142503809Y-87747142D01*
X142694285Y-87651904D01*
X142789523Y-87556666D01*
X142884761Y-87366190D01*
X142884761Y-87175714D01*
X142789523Y-86985238D01*
X142694285Y-86890000D01*
X142503809Y-86794761D01*
X142027619Y-86794761D01*
X141741904Y-86890000D01*
X140884761Y-87461428D02*
X140884761Y-89461428D01*
X140884761Y-87556666D02*
X140694285Y-87461428D01*
X140313333Y-87461428D01*
X140122857Y-87556666D01*
X140027619Y-87651904D01*
X139932380Y-87842380D01*
X139932380Y-88413809D01*
X140027619Y-88604285D01*
X140122857Y-88699523D01*
X140313333Y-88794761D01*
X140694285Y-88794761D01*
X140884761Y-88699523D01*
X138218095Y-88794761D02*
X138218095Y-87747142D01*
X138313333Y-87556666D01*
X138503809Y-87461428D01*
X138884761Y-87461428D01*
X139075238Y-87556666D01*
X138218095Y-88699523D02*
X138408571Y-88794761D01*
X138884761Y-88794761D01*
X139075238Y-88699523D01*
X139170476Y-88509047D01*
X139170476Y-88318571D01*
X139075238Y-88128095D01*
X138884761Y-88032857D01*
X138408571Y-88032857D01*
X138218095Y-87937619D01*
X137265714Y-88794761D02*
X137265714Y-87461428D01*
X137265714Y-87842380D02*
X137170476Y-87651904D01*
X137075238Y-87556666D01*
X136884761Y-87461428D01*
X136694285Y-87461428D01*
X136027619Y-88794761D02*
X136027619Y-86794761D01*
X135837142Y-88032857D02*
X135265714Y-88794761D01*
X135265714Y-87461428D02*
X136027619Y-88223333D01*
X132980000Y-86699523D02*
X134694285Y-89270952D01*
X131170476Y-88794761D02*
X131837142Y-87842380D01*
X132313333Y-88794761D02*
X132313333Y-86794761D01*
X131551428Y-86794761D01*
X131360952Y-86890000D01*
X131265714Y-86985238D01*
X131170476Y-87175714D01*
X131170476Y-87461428D01*
X131265714Y-87651904D01*
X131360952Y-87747142D01*
X131551428Y-87842380D01*
X132313333Y-87842380D01*
X129265714Y-86890000D02*
X129456190Y-86794761D01*
X129741904Y-86794761D01*
X130027619Y-86890000D01*
X130218095Y-87080476D01*
X130313333Y-87270952D01*
X130408571Y-87651904D01*
X130408571Y-87937619D01*
X130313333Y-88318571D01*
X130218095Y-88509047D01*
X130027619Y-88699523D01*
X129741904Y-88794761D01*
X129551428Y-88794761D01*
X129265714Y-88699523D01*
X129170476Y-88604285D01*
X129170476Y-87937619D01*
X129551428Y-87937619D01*
X127646666Y-87747142D02*
X127360952Y-87842380D01*
X127265714Y-87937619D01*
X127170476Y-88128095D01*
X127170476Y-88413809D01*
X127265714Y-88604285D01*
X127360952Y-88699523D01*
X127551428Y-88794761D01*
X128313333Y-88794761D01*
X128313333Y-86794761D01*
X127646666Y-86794761D01*
X127456190Y-86890000D01*
X127360952Y-86985238D01*
X127265714Y-87175714D01*
X127265714Y-87366190D01*
X127360952Y-87556666D01*
X127456190Y-87651904D01*
X127646666Y-87747142D01*
X128313333Y-87747142D01*
X125456190Y-88699523D02*
X125646666Y-88794761D01*
X126027619Y-88794761D01*
X126218095Y-88699523D01*
X126313333Y-88604285D01*
X126408571Y-88413809D01*
X126408571Y-87842380D01*
X126313333Y-87651904D01*
X126218095Y-87556666D01*
X126027619Y-87461428D01*
X125646666Y-87461428D01*
X125456190Y-87556666D01*
X124599047Y-88794761D02*
X124599047Y-86794761D01*
X123741904Y-88794761D02*
X123741904Y-87747142D01*
X123837142Y-87556666D01*
X124027619Y-87461428D01*
X124313333Y-87461428D01*
X124503809Y-87556666D01*
X124599047Y-87651904D01*
X122789523Y-88794761D02*
X122789523Y-87461428D01*
X122789523Y-87842380D02*
X122694285Y-87651904D01*
X122599047Y-87556666D01*
X122408571Y-87461428D01*
X122218095Y-87461428D01*
X121551428Y-88794761D02*
X121551428Y-87461428D01*
X121551428Y-86794761D02*
X121646666Y-86890000D01*
X121551428Y-86985238D01*
X121456190Y-86890000D01*
X121551428Y-86794761D01*
X121551428Y-86985238D01*
X120694285Y-88699523D02*
X120503809Y-88794761D01*
X120122857Y-88794761D01*
X119932380Y-88699523D01*
X119837142Y-88509047D01*
X119837142Y-88413809D01*
X119932380Y-88223333D01*
X120122857Y-88128095D01*
X120408571Y-88128095D01*
X120599047Y-88032857D01*
X120694285Y-87842380D01*
X120694285Y-87747142D01*
X120599047Y-87556666D01*
X120408571Y-87461428D01*
X120122857Y-87461428D01*
X119932380Y-87556666D01*
X119265714Y-87461428D02*
X118503809Y-87461428D01*
X118980000Y-86794761D02*
X118980000Y-88509047D01*
X118884761Y-88699523D01*
X118694285Y-88794761D01*
X118503809Y-88794761D01*
X117837142Y-88794761D02*
X117837142Y-87461428D01*
X117837142Y-87651904D02*
X117741904Y-87556666D01*
X117551428Y-87461428D01*
X117265714Y-87461428D01*
X117075238Y-87556666D01*
X116980000Y-87747142D01*
X116980000Y-88794761D01*
X116980000Y-87747142D02*
X116884761Y-87556666D01*
X116694285Y-87461428D01*
X116408571Y-87461428D01*
X116218095Y-87556666D01*
X116122857Y-87747142D01*
X116122857Y-88794761D01*
X114313333Y-88794761D02*
X114313333Y-87747142D01*
X114408571Y-87556666D01*
X114599047Y-87461428D01*
X114980000Y-87461428D01*
X115170476Y-87556666D01*
X114313333Y-88699523D02*
X114503809Y-88794761D01*
X114980000Y-88794761D01*
X115170476Y-88699523D01*
X115265714Y-88509047D01*
X115265714Y-88318571D01*
X115170476Y-88128095D01*
X114980000Y-88032857D01*
X114503809Y-88032857D01*
X114313333Y-87937619D01*
X113456190Y-88699523D02*
X113265714Y-88794761D01*
X112884761Y-88794761D01*
X112694285Y-88699523D01*
X112599047Y-88509047D01*
X112599047Y-88413809D01*
X112694285Y-88223333D01*
X112884761Y-88128095D01*
X113170476Y-88128095D01*
X113360952Y-88032857D01*
X113456190Y-87842380D01*
X113456190Y-87747142D01*
X113360952Y-87556666D01*
X113170476Y-87461428D01*
X112884761Y-87461428D01*
X112694285Y-87556666D01*
X111837142Y-88699523D02*
X111551428Y-88794761D01*
X111075238Y-88794761D01*
X110884761Y-88699523D01*
X110789523Y-88604285D01*
X110694285Y-88413809D01*
X110694285Y-88223333D01*
X110789523Y-88032857D01*
X110884761Y-87937619D01*
X111075238Y-87842380D01*
X111456190Y-87747142D01*
X111646666Y-87651904D01*
X111741904Y-87556666D01*
X111837142Y-87366190D01*
X111837142Y-87175714D01*
X111741904Y-86985238D01*
X111646666Y-86890000D01*
X111456190Y-86794761D01*
X110980000Y-86794761D01*
X110694285Y-86890000D01*
X110122857Y-87461428D02*
X109360952Y-87461428D01*
X109837142Y-86794761D02*
X109837142Y-88509047D01*
X109741904Y-88699523D01*
X109551428Y-88794761D01*
X109360952Y-88794761D01*
X107837142Y-88794761D02*
X107837142Y-87747142D01*
X107932380Y-87556666D01*
X108122857Y-87461428D01*
X108503809Y-87461428D01*
X108694285Y-87556666D01*
X107837142Y-88699523D02*
X108027619Y-88794761D01*
X108503809Y-88794761D01*
X108694285Y-88699523D01*
X108789523Y-88509047D01*
X108789523Y-88318571D01*
X108694285Y-88128095D01*
X108503809Y-88032857D01*
X108027619Y-88032857D01*
X107837142Y-87937619D01*
X106884761Y-88794761D02*
X106884761Y-87461428D01*
X106884761Y-87842380D02*
X106789523Y-87651904D01*
X106694285Y-87556666D01*
X106503809Y-87461428D01*
X106313333Y-87461428D01*
D11*
%TO.C,REF\u002A\u002A*%
G36*
X107790986Y-34452998D02*
G01*
X107632994Y-34453863D01*
X107518653Y-34456205D01*
X107440593Y-34460762D01*
X107391446Y-34468270D01*
X107363841Y-34479466D01*
X107350408Y-34495088D01*
X107343779Y-34515873D01*
X107343135Y-34518563D01*
X107333065Y-34567113D01*
X107314425Y-34662905D01*
X107289155Y-34795743D01*
X107259193Y-34955431D01*
X107226478Y-35131774D01*
X107225336Y-35137967D01*
X107192567Y-35310782D01*
X107161907Y-35463469D01*
X107135336Y-35586871D01*
X107114833Y-35671831D01*
X107102374Y-35709190D01*
X107101780Y-35709852D01*
X107065081Y-35728095D01*
X106989414Y-35758497D01*
X106891122Y-35794493D01*
X106890575Y-35794685D01*
X106766767Y-35841222D01*
X106620804Y-35900504D01*
X106483219Y-35960109D01*
X106476707Y-35963056D01*
X106252610Y-36064765D01*
X105756381Y-35725897D01*
X105604154Y-35622592D01*
X105466259Y-35530237D01*
X105350685Y-35454084D01*
X105265421Y-35399385D01*
X105218456Y-35371393D01*
X105213996Y-35369317D01*
X105179866Y-35378560D01*
X105116119Y-35423156D01*
X105020269Y-35505209D01*
X104889831Y-35626821D01*
X104756672Y-35756205D01*
X104628306Y-35883702D01*
X104513419Y-36000046D01*
X104418927Y-36098052D01*
X104351747Y-36170536D01*
X104318794Y-36210313D01*
X104317568Y-36212361D01*
X104313926Y-36239656D01*
X104327650Y-36284234D01*
X104362131Y-36352112D01*
X104420761Y-36449311D01*
X104506930Y-36581851D01*
X104621800Y-36752476D01*
X104723746Y-36902655D01*
X104814877Y-37037350D01*
X104889927Y-37148740D01*
X104943631Y-37229005D01*
X104970720Y-37270325D01*
X104972426Y-37273130D01*
X104969118Y-37312721D01*
X104944047Y-37389669D01*
X104902202Y-37489432D01*
X104887288Y-37521291D01*
X104822214Y-37663226D01*
X104752788Y-37824273D01*
X104696391Y-37963621D01*
X104655753Y-38067044D01*
X104623474Y-38145642D01*
X104604822Y-38186720D01*
X104602503Y-38189885D01*
X104568197Y-38195128D01*
X104487331Y-38209494D01*
X104370657Y-38230937D01*
X104228925Y-38257413D01*
X104072890Y-38286877D01*
X103913302Y-38317283D01*
X103760915Y-38346588D01*
X103626479Y-38372745D01*
X103520748Y-38393710D01*
X103454474Y-38407439D01*
X103438218Y-38411320D01*
X103421427Y-38420900D01*
X103408751Y-38442536D01*
X103399622Y-38483531D01*
X103393469Y-38551189D01*
X103389720Y-38652812D01*
X103387808Y-38795703D01*
X103387160Y-38987165D01*
X103387126Y-39065645D01*
X103387126Y-39703906D01*
X103540402Y-39734160D01*
X103625678Y-39750564D01*
X103752930Y-39774509D01*
X103906685Y-39803107D01*
X104071466Y-39833467D01*
X104117011Y-39841806D01*
X104269068Y-39871370D01*
X104401532Y-39900442D01*
X104503286Y-39926329D01*
X104563212Y-39946337D01*
X104573195Y-39952301D01*
X104597707Y-39994534D01*
X104632852Y-40076370D01*
X104671827Y-40181683D01*
X104679558Y-40204368D01*
X104730640Y-40345018D01*
X104794046Y-40503714D01*
X104856096Y-40646225D01*
X104856402Y-40646886D01*
X104959733Y-40870440D01*
X104280039Y-41870232D01*
X104716379Y-42307300D01*
X104848351Y-42437381D01*
X104968721Y-42552048D01*
X105070727Y-42645181D01*
X105147609Y-42710658D01*
X105192607Y-42742357D01*
X105199062Y-42744368D01*
X105236960Y-42728529D01*
X105314292Y-42684496D01*
X105422611Y-42617490D01*
X105553468Y-42532734D01*
X105694948Y-42437816D01*
X105838539Y-42340998D01*
X105966565Y-42256751D01*
X106070895Y-42190258D01*
X106143400Y-42146702D01*
X106175842Y-42131264D01*
X106215424Y-42144328D01*
X106290481Y-42178750D01*
X106385532Y-42227380D01*
X106395608Y-42232785D01*
X106523609Y-42296980D01*
X106611382Y-42328463D01*
X106665972Y-42328798D01*
X106694425Y-42299548D01*
X106694590Y-42299138D01*
X106708812Y-42264498D01*
X106742731Y-42182269D01*
X106793716Y-42058814D01*
X106859138Y-41900498D01*
X106936366Y-41713686D01*
X107022771Y-41504742D01*
X107106449Y-41302446D01*
X107198412Y-41079200D01*
X107282850Y-40872392D01*
X107357231Y-40688362D01*
X107419026Y-40533451D01*
X107465703Y-40413996D01*
X107494732Y-40336339D01*
X107503678Y-40307356D01*
X107481244Y-40274110D01*
X107422561Y-40221123D01*
X107344311Y-40162704D01*
X107121466Y-39977952D01*
X106947282Y-39766182D01*
X106823846Y-39531856D01*
X106753246Y-39279434D01*
X106737569Y-39013377D01*
X106748964Y-38890575D01*
X106811050Y-38635793D01*
X106917977Y-38410801D01*
X107063111Y-38217817D01*
X107239822Y-38059061D01*
X107441478Y-37936750D01*
X107661446Y-37853105D01*
X107893094Y-37810344D01*
X108129791Y-37810687D01*
X108364905Y-37856352D01*
X108591804Y-37949559D01*
X108803856Y-38092527D01*
X108892364Y-38173383D01*
X109062111Y-38381007D01*
X109180301Y-38607895D01*
X109247722Y-38847433D01*
X109265160Y-39093007D01*
X109233402Y-39338003D01*
X109153235Y-39575808D01*
X109025445Y-39799807D01*
X108850820Y-40003387D01*
X108655688Y-40162704D01*
X108574409Y-40223602D01*
X108516991Y-40276015D01*
X108496322Y-40307406D01*
X108507144Y-40341639D01*
X108537923Y-40423419D01*
X108586126Y-40546407D01*
X108649222Y-40704263D01*
X108724678Y-40890649D01*
X108809962Y-41099226D01*
X108893781Y-41302496D01*
X108986255Y-41525933D01*
X109071911Y-41732984D01*
X109148118Y-41917286D01*
X109212247Y-42072475D01*
X109261668Y-42192188D01*
X109293752Y-42270061D01*
X109305641Y-42299138D01*
X109333726Y-42328677D01*
X109388051Y-42328591D01*
X109475605Y-42297326D01*
X109603381Y-42233329D01*
X109604392Y-42232785D01*
X109700598Y-42183121D01*
X109778369Y-42146945D01*
X109822223Y-42131408D01*
X109824158Y-42131264D01*
X109857171Y-42147024D01*
X109930054Y-42190850D01*
X110034678Y-42257557D01*
X110162910Y-42341964D01*
X110305052Y-42437816D01*
X110449767Y-42534867D01*
X110580196Y-42619270D01*
X110687890Y-42685801D01*
X110764402Y-42729238D01*
X110800938Y-42744368D01*
X110834582Y-42724482D01*
X110902224Y-42668903D01*
X110997107Y-42583754D01*
X111112470Y-42475153D01*
X111241555Y-42349221D01*
X111283771Y-42307149D01*
X111720261Y-41869931D01*
X111388023Y-41382340D01*
X111287054Y-41232605D01*
X111198438Y-41098220D01*
X111127146Y-40986969D01*
X111078150Y-40906639D01*
X111056422Y-40865014D01*
X111055785Y-40862053D01*
X111067240Y-40822818D01*
X111098051Y-40743895D01*
X111142884Y-40638509D01*
X111174353Y-40567954D01*
X111233192Y-40432876D01*
X111288604Y-40296409D01*
X111331564Y-40181103D01*
X111343234Y-40145977D01*
X111376389Y-40052174D01*
X111408799Y-39979694D01*
X111426601Y-39952301D01*
X111465886Y-39935536D01*
X111551626Y-39911770D01*
X111672697Y-39883697D01*
X111817973Y-39854009D01*
X111882988Y-39841806D01*
X112048087Y-39811468D01*
X112206448Y-39782093D01*
X112342596Y-39756569D01*
X112441057Y-39737785D01*
X112459598Y-39734160D01*
X112612873Y-39703906D01*
X112612873Y-39065645D01*
X112612529Y-38855770D01*
X112611116Y-38696980D01*
X112608064Y-38581973D01*
X112602803Y-38503446D01*
X112594763Y-38454096D01*
X112583373Y-38426619D01*
X112568063Y-38413713D01*
X112561782Y-38411320D01*
X112523896Y-38402833D01*
X112440195Y-38385900D01*
X112321433Y-38362566D01*
X112178361Y-38334875D01*
X112021732Y-38304873D01*
X111862297Y-38274604D01*
X111710809Y-38246115D01*
X111578019Y-38221449D01*
X111474681Y-38202651D01*
X111411545Y-38191767D01*
X111397497Y-38189885D01*
X111384770Y-38164704D01*
X111356600Y-38097622D01*
X111318252Y-38001333D01*
X111303609Y-37963621D01*
X111244548Y-37817921D01*
X111175000Y-37656951D01*
X111112712Y-37521291D01*
X111066879Y-37417561D01*
X111036387Y-37332326D01*
X111026208Y-37280126D01*
X111027831Y-37273130D01*
X111049343Y-37240102D01*
X111098465Y-37166643D01*
X111169923Y-37060577D01*
X111258445Y-36929726D01*
X111358759Y-36781912D01*
X111378594Y-36752734D01*
X111494988Y-36579863D01*
X111580548Y-36448226D01*
X111638684Y-36351761D01*
X111672808Y-36284408D01*
X111686331Y-36240106D01*
X111682664Y-36212794D01*
X111682570Y-36212620D01*
X111653707Y-36176746D01*
X111589867Y-36107391D01*
X111497969Y-36011745D01*
X111384933Y-35896999D01*
X111257679Y-35770341D01*
X111243328Y-35756205D01*
X111082957Y-35600903D01*
X110959195Y-35486870D01*
X110869555Y-35412002D01*
X110811552Y-35374196D01*
X110786004Y-35369317D01*
X110748718Y-35390603D01*
X110671343Y-35439773D01*
X110561867Y-35511575D01*
X110428280Y-35600755D01*
X110278570Y-35702063D01*
X110243618Y-35725897D01*
X109747390Y-36064765D01*
X109523293Y-35963056D01*
X109387011Y-35903783D01*
X109240724Y-35844170D01*
X109114965Y-35796640D01*
X109109425Y-35794685D01*
X109011057Y-35758677D01*
X108935229Y-35728229D01*
X108898282Y-35709905D01*
X108898220Y-35709852D01*
X108886496Y-35676729D01*
X108866568Y-35595267D01*
X108840413Y-35474625D01*
X108810010Y-35323959D01*
X108777337Y-35152428D01*
X108774664Y-35137967D01*
X108741890Y-34961235D01*
X108711802Y-34800810D01*
X108686339Y-34666888D01*
X108667441Y-34569663D01*
X108657047Y-34519332D01*
X108656865Y-34518563D01*
X108650539Y-34497153D01*
X108638239Y-34480988D01*
X108612594Y-34469331D01*
X108566235Y-34461445D01*
X108491792Y-34456593D01*
X108381895Y-34454039D01*
X108229175Y-34453045D01*
X108026262Y-34452874D01*
X108000000Y-34452874D01*
X107790986Y-34452998D01*
G37*
X107790986Y-34452998D02*
X107632994Y-34453863D01*
X107518653Y-34456205D01*
X107440593Y-34460762D01*
X107391446Y-34468270D01*
X107363841Y-34479466D01*
X107350408Y-34495088D01*
X107343779Y-34515873D01*
X107343135Y-34518563D01*
X107333065Y-34567113D01*
X107314425Y-34662905D01*
X107289155Y-34795743D01*
X107259193Y-34955431D01*
X107226478Y-35131774D01*
X107225336Y-35137967D01*
X107192567Y-35310782D01*
X107161907Y-35463469D01*
X107135336Y-35586871D01*
X107114833Y-35671831D01*
X107102374Y-35709190D01*
X107101780Y-35709852D01*
X107065081Y-35728095D01*
X106989414Y-35758497D01*
X106891122Y-35794493D01*
X106890575Y-35794685D01*
X106766767Y-35841222D01*
X106620804Y-35900504D01*
X106483219Y-35960109D01*
X106476707Y-35963056D01*
X106252610Y-36064765D01*
X105756381Y-35725897D01*
X105604154Y-35622592D01*
X105466259Y-35530237D01*
X105350685Y-35454084D01*
X105265421Y-35399385D01*
X105218456Y-35371393D01*
X105213996Y-35369317D01*
X105179866Y-35378560D01*
X105116119Y-35423156D01*
X105020269Y-35505209D01*
X104889831Y-35626821D01*
X104756672Y-35756205D01*
X104628306Y-35883702D01*
X104513419Y-36000046D01*
X104418927Y-36098052D01*
X104351747Y-36170536D01*
X104318794Y-36210313D01*
X104317568Y-36212361D01*
X104313926Y-36239656D01*
X104327650Y-36284234D01*
X104362131Y-36352112D01*
X104420761Y-36449311D01*
X104506930Y-36581851D01*
X104621800Y-36752476D01*
X104723746Y-36902655D01*
X104814877Y-37037350D01*
X104889927Y-37148740D01*
X104943631Y-37229005D01*
X104970720Y-37270325D01*
X104972426Y-37273130D01*
X104969118Y-37312721D01*
X104944047Y-37389669D01*
X104902202Y-37489432D01*
X104887288Y-37521291D01*
X104822214Y-37663226D01*
X104752788Y-37824273D01*
X104696391Y-37963621D01*
X104655753Y-38067044D01*
X104623474Y-38145642D01*
X104604822Y-38186720D01*
X104602503Y-38189885D01*
X104568197Y-38195128D01*
X104487331Y-38209494D01*
X104370657Y-38230937D01*
X104228925Y-38257413D01*
X104072890Y-38286877D01*
X103913302Y-38317283D01*
X103760915Y-38346588D01*
X103626479Y-38372745D01*
X103520748Y-38393710D01*
X103454474Y-38407439D01*
X103438218Y-38411320D01*
X103421427Y-38420900D01*
X103408751Y-38442536D01*
X103399622Y-38483531D01*
X103393469Y-38551189D01*
X103389720Y-38652812D01*
X103387808Y-38795703D01*
X103387160Y-38987165D01*
X103387126Y-39065645D01*
X103387126Y-39703906D01*
X103540402Y-39734160D01*
X103625678Y-39750564D01*
X103752930Y-39774509D01*
X103906685Y-39803107D01*
X104071466Y-39833467D01*
X104117011Y-39841806D01*
X104269068Y-39871370D01*
X104401532Y-39900442D01*
X104503286Y-39926329D01*
X104563212Y-39946337D01*
X104573195Y-39952301D01*
X104597707Y-39994534D01*
X104632852Y-40076370D01*
X104671827Y-40181683D01*
X104679558Y-40204368D01*
X104730640Y-40345018D01*
X104794046Y-40503714D01*
X104856096Y-40646225D01*
X104856402Y-40646886D01*
X104959733Y-40870440D01*
X104280039Y-41870232D01*
X104716379Y-42307300D01*
X104848351Y-42437381D01*
X104968721Y-42552048D01*
X105070727Y-42645181D01*
X105147609Y-42710658D01*
X105192607Y-42742357D01*
X105199062Y-42744368D01*
X105236960Y-42728529D01*
X105314292Y-42684496D01*
X105422611Y-42617490D01*
X105553468Y-42532734D01*
X105694948Y-42437816D01*
X105838539Y-42340998D01*
X105966565Y-42256751D01*
X106070895Y-42190258D01*
X106143400Y-42146702D01*
X106175842Y-42131264D01*
X106215424Y-42144328D01*
X106290481Y-42178750D01*
X106385532Y-42227380D01*
X106395608Y-42232785D01*
X106523609Y-42296980D01*
X106611382Y-42328463D01*
X106665972Y-42328798D01*
X106694425Y-42299548D01*
X106694590Y-42299138D01*
X106708812Y-42264498D01*
X106742731Y-42182269D01*
X106793716Y-42058814D01*
X106859138Y-41900498D01*
X106936366Y-41713686D01*
X107022771Y-41504742D01*
X107106449Y-41302446D01*
X107198412Y-41079200D01*
X107282850Y-40872392D01*
X107357231Y-40688362D01*
X107419026Y-40533451D01*
X107465703Y-40413996D01*
X107494732Y-40336339D01*
X107503678Y-40307356D01*
X107481244Y-40274110D01*
X107422561Y-40221123D01*
X107344311Y-40162704D01*
X107121466Y-39977952D01*
X106947282Y-39766182D01*
X106823846Y-39531856D01*
X106753246Y-39279434D01*
X106737569Y-39013377D01*
X106748964Y-38890575D01*
X106811050Y-38635793D01*
X106917977Y-38410801D01*
X107063111Y-38217817D01*
X107239822Y-38059061D01*
X107441478Y-37936750D01*
X107661446Y-37853105D01*
X107893094Y-37810344D01*
X108129791Y-37810687D01*
X108364905Y-37856352D01*
X108591804Y-37949559D01*
X108803856Y-38092527D01*
X108892364Y-38173383D01*
X109062111Y-38381007D01*
X109180301Y-38607895D01*
X109247722Y-38847433D01*
X109265160Y-39093007D01*
X109233402Y-39338003D01*
X109153235Y-39575808D01*
X109025445Y-39799807D01*
X108850820Y-40003387D01*
X108655688Y-40162704D01*
X108574409Y-40223602D01*
X108516991Y-40276015D01*
X108496322Y-40307406D01*
X108507144Y-40341639D01*
X108537923Y-40423419D01*
X108586126Y-40546407D01*
X108649222Y-40704263D01*
X108724678Y-40890649D01*
X108809962Y-41099226D01*
X108893781Y-41302496D01*
X108986255Y-41525933D01*
X109071911Y-41732984D01*
X109148118Y-41917286D01*
X109212247Y-42072475D01*
X109261668Y-42192188D01*
X109293752Y-42270061D01*
X109305641Y-42299138D01*
X109333726Y-42328677D01*
X109388051Y-42328591D01*
X109475605Y-42297326D01*
X109603381Y-42233329D01*
X109604392Y-42232785D01*
X109700598Y-42183121D01*
X109778369Y-42146945D01*
X109822223Y-42131408D01*
X109824158Y-42131264D01*
X109857171Y-42147024D01*
X109930054Y-42190850D01*
X110034678Y-42257557D01*
X110162910Y-42341964D01*
X110305052Y-42437816D01*
X110449767Y-42534867D01*
X110580196Y-42619270D01*
X110687890Y-42685801D01*
X110764402Y-42729238D01*
X110800938Y-42744368D01*
X110834582Y-42724482D01*
X110902224Y-42668903D01*
X110997107Y-42583754D01*
X111112470Y-42475153D01*
X111241555Y-42349221D01*
X111283771Y-42307149D01*
X111720261Y-41869931D01*
X111388023Y-41382340D01*
X111287054Y-41232605D01*
X111198438Y-41098220D01*
X111127146Y-40986969D01*
X111078150Y-40906639D01*
X111056422Y-40865014D01*
X111055785Y-40862053D01*
X111067240Y-40822818D01*
X111098051Y-40743895D01*
X111142884Y-40638509D01*
X111174353Y-40567954D01*
X111233192Y-40432876D01*
X111288604Y-40296409D01*
X111331564Y-40181103D01*
X111343234Y-40145977D01*
X111376389Y-40052174D01*
X111408799Y-39979694D01*
X111426601Y-39952301D01*
X111465886Y-39935536D01*
X111551626Y-39911770D01*
X111672697Y-39883697D01*
X111817973Y-39854009D01*
X111882988Y-39841806D01*
X112048087Y-39811468D01*
X112206448Y-39782093D01*
X112342596Y-39756569D01*
X112441057Y-39737785D01*
X112459598Y-39734160D01*
X112612873Y-39703906D01*
X112612873Y-39065645D01*
X112612529Y-38855770D01*
X112611116Y-38696980D01*
X112608064Y-38581973D01*
X112602803Y-38503446D01*
X112594763Y-38454096D01*
X112583373Y-38426619D01*
X112568063Y-38413713D01*
X112561782Y-38411320D01*
X112523896Y-38402833D01*
X112440195Y-38385900D01*
X112321433Y-38362566D01*
X112178361Y-38334875D01*
X112021732Y-38304873D01*
X111862297Y-38274604D01*
X111710809Y-38246115D01*
X111578019Y-38221449D01*
X111474681Y-38202651D01*
X111411545Y-38191767D01*
X111397497Y-38189885D01*
X111384770Y-38164704D01*
X111356600Y-38097622D01*
X111318252Y-38001333D01*
X111303609Y-37963621D01*
X111244548Y-37817921D01*
X111175000Y-37656951D01*
X111112712Y-37521291D01*
X111066879Y-37417561D01*
X111036387Y-37332326D01*
X111026208Y-37280126D01*
X111027831Y-37273130D01*
X111049343Y-37240102D01*
X111098465Y-37166643D01*
X111169923Y-37060577D01*
X111258445Y-36929726D01*
X111358759Y-36781912D01*
X111378594Y-36752734D01*
X111494988Y-36579863D01*
X111580548Y-36448226D01*
X111638684Y-36351761D01*
X111672808Y-36284408D01*
X111686331Y-36240106D01*
X111682664Y-36212794D01*
X111682570Y-36212620D01*
X111653707Y-36176746D01*
X111589867Y-36107391D01*
X111497969Y-36011745D01*
X111384933Y-35896999D01*
X111257679Y-35770341D01*
X111243328Y-35756205D01*
X111082957Y-35600903D01*
X110959195Y-35486870D01*
X110869555Y-35412002D01*
X110811552Y-35374196D01*
X110786004Y-35369317D01*
X110748718Y-35390603D01*
X110671343Y-35439773D01*
X110561867Y-35511575D01*
X110428280Y-35600755D01*
X110278570Y-35702063D01*
X110243618Y-35725897D01*
X109747390Y-36064765D01*
X109523293Y-35963056D01*
X109387011Y-35903783D01*
X109240724Y-35844170D01*
X109114965Y-35796640D01*
X109109425Y-35794685D01*
X109011057Y-35758677D01*
X108935229Y-35728229D01*
X108898282Y-35709905D01*
X108898220Y-35709852D01*
X108886496Y-35676729D01*
X108866568Y-35595267D01*
X108840413Y-35474625D01*
X108810010Y-35323959D01*
X108777337Y-35152428D01*
X108774664Y-35137967D01*
X108741890Y-34961235D01*
X108711802Y-34800810D01*
X108686339Y-34666888D01*
X108667441Y-34569663D01*
X108657047Y-34519332D01*
X108656865Y-34518563D01*
X108650539Y-34497153D01*
X108638239Y-34480988D01*
X108612594Y-34469331D01*
X108566235Y-34461445D01*
X108491792Y-34456593D01*
X108381895Y-34454039D01*
X108229175Y-34453045D01*
X108026262Y-34452874D01*
X108000000Y-34452874D01*
X107790986Y-34452998D01*
G36*
X101656561Y-43956540D02*
G01*
X101541050Y-44032034D01*
X101485336Y-44099617D01*
X101441196Y-44222255D01*
X101437691Y-44319298D01*
X101445632Y-44449056D01*
X101744885Y-44580039D01*
X101890389Y-44646958D01*
X101985463Y-44700790D01*
X102034899Y-44747416D01*
X102043489Y-44792720D01*
X102016028Y-44842582D01*
X101985747Y-44875632D01*
X101897637Y-44928633D01*
X101801804Y-44932347D01*
X101713788Y-44891041D01*
X101649131Y-44808983D01*
X101637567Y-44780008D01*
X101582175Y-44689509D01*
X101518447Y-44650940D01*
X101431034Y-44617946D01*
X101431034Y-44743034D01*
X101438762Y-44828156D01*
X101469034Y-44899938D01*
X101532482Y-44982356D01*
X101541912Y-44993066D01*
X101612487Y-45066391D01*
X101673153Y-45105742D01*
X101749050Y-45123845D01*
X101811970Y-45129774D01*
X101924513Y-45131251D01*
X102004630Y-45112535D01*
X102054610Y-45084747D01*
X102133162Y-45023641D01*
X102187537Y-44957554D01*
X102221948Y-44874441D01*
X102240612Y-44762254D01*
X102247744Y-44608946D01*
X102248313Y-44531136D01*
X102246378Y-44437853D01*
X102070101Y-44437853D01*
X102068056Y-44487896D01*
X102062961Y-44496092D01*
X102029334Y-44484958D01*
X101956970Y-44455493D01*
X101860253Y-44413601D01*
X101840027Y-44404597D01*
X101717797Y-44342442D01*
X101650453Y-44287815D01*
X101635652Y-44236649D01*
X101671053Y-44184876D01*
X101700289Y-44162000D01*
X101805784Y-44116250D01*
X101904524Y-44123808D01*
X101987188Y-44179651D01*
X102044452Y-44278753D01*
X102062812Y-44357414D01*
X102070101Y-44437853D01*
X102246378Y-44437853D01*
X102244541Y-44349351D01*
X102230641Y-44214853D01*
X102203106Y-44116916D01*
X102158428Y-44044811D01*
X102093099Y-43987813D01*
X102064617Y-43969393D01*
X101935237Y-43921422D01*
X101793588Y-43918403D01*
X101656561Y-43956540D01*
G37*
X101656561Y-43956540D02*
X101541050Y-44032034D01*
X101485336Y-44099617D01*
X101441196Y-44222255D01*
X101437691Y-44319298D01*
X101445632Y-44449056D01*
X101744885Y-44580039D01*
X101890389Y-44646958D01*
X101985463Y-44700790D01*
X102034899Y-44747416D01*
X102043489Y-44792720D01*
X102016028Y-44842582D01*
X101985747Y-44875632D01*
X101897637Y-44928633D01*
X101801804Y-44932347D01*
X101713788Y-44891041D01*
X101649131Y-44808983D01*
X101637567Y-44780008D01*
X101582175Y-44689509D01*
X101518447Y-44650940D01*
X101431034Y-44617946D01*
X101431034Y-44743034D01*
X101438762Y-44828156D01*
X101469034Y-44899938D01*
X101532482Y-44982356D01*
X101541912Y-44993066D01*
X101612487Y-45066391D01*
X101673153Y-45105742D01*
X101749050Y-45123845D01*
X101811970Y-45129774D01*
X101924513Y-45131251D01*
X102004630Y-45112535D01*
X102054610Y-45084747D01*
X102133162Y-45023641D01*
X102187537Y-44957554D01*
X102221948Y-44874441D01*
X102240612Y-44762254D01*
X102247744Y-44608946D01*
X102248313Y-44531136D01*
X102246378Y-44437853D01*
X102070101Y-44437853D01*
X102068056Y-44487896D01*
X102062961Y-44496092D01*
X102029334Y-44484958D01*
X101956970Y-44455493D01*
X101860253Y-44413601D01*
X101840027Y-44404597D01*
X101717797Y-44342442D01*
X101650453Y-44287815D01*
X101635652Y-44236649D01*
X101671053Y-44184876D01*
X101700289Y-44162000D01*
X101805784Y-44116250D01*
X101904524Y-44123808D01*
X101987188Y-44179651D01*
X102044452Y-44278753D01*
X102062812Y-44357414D01*
X102070101Y-44437853D01*
X102246378Y-44437853D01*
X102244541Y-44349351D01*
X102230641Y-44214853D01*
X102203106Y-44116916D01*
X102158428Y-44044811D01*
X102093099Y-43987813D01*
X102064617Y-43969393D01*
X101935237Y-43921422D01*
X101793588Y-43918403D01*
X101656561Y-43956540D01*
G36*
X102664310Y-43940018D02*
G01*
X102629415Y-43955269D01*
X102546123Y-44021235D01*
X102474897Y-44116618D01*
X102430847Y-44218406D01*
X102423678Y-44268587D01*
X102447715Y-44338647D01*
X102500439Y-44375717D01*
X102556969Y-44398164D01*
X102582854Y-44402300D01*
X102595458Y-44372283D01*
X102620346Y-44306961D01*
X102631265Y-44277445D01*
X102692492Y-44175348D01*
X102781139Y-44124423D01*
X102894807Y-44125989D01*
X102903226Y-44127994D01*
X102963912Y-44156767D01*
X103008526Y-44212859D01*
X103038998Y-44303163D01*
X103057256Y-44434571D01*
X103065229Y-44613974D01*
X103065977Y-44709433D01*
X103066348Y-44859913D01*
X103068777Y-44962495D01*
X103075240Y-45027672D01*
X103087712Y-45065938D01*
X103108167Y-45087785D01*
X103138581Y-45103707D01*
X103140339Y-45104509D01*
X103198909Y-45129272D01*
X103227925Y-45138391D01*
X103232384Y-45110822D01*
X103236201Y-45034620D01*
X103239101Y-44919541D01*
X103240809Y-44775341D01*
X103241149Y-44669814D01*
X103239412Y-44465613D01*
X103232618Y-44310697D01*
X103218393Y-44196024D01*
X103194362Y-44112551D01*
X103158152Y-44051236D01*
X103107388Y-44003034D01*
X103057261Y-43969393D01*
X102936725Y-43924619D01*
X102796443Y-43914521D01*
X102664310Y-43940018D01*
G37*
X102664310Y-43940018D02*
X102629415Y-43955269D01*
X102546123Y-44021235D01*
X102474897Y-44116618D01*
X102430847Y-44218406D01*
X102423678Y-44268587D01*
X102447715Y-44338647D01*
X102500439Y-44375717D01*
X102556969Y-44398164D01*
X102582854Y-44402300D01*
X102595458Y-44372283D01*
X102620346Y-44306961D01*
X102631265Y-44277445D01*
X102692492Y-44175348D01*
X102781139Y-44124423D01*
X102894807Y-44125989D01*
X102903226Y-44127994D01*
X102963912Y-44156767D01*
X103008526Y-44212859D01*
X103038998Y-44303163D01*
X103057256Y-44434571D01*
X103065229Y-44613974D01*
X103065977Y-44709433D01*
X103066348Y-44859913D01*
X103068777Y-44962495D01*
X103075240Y-45027672D01*
X103087712Y-45065938D01*
X103108167Y-45087785D01*
X103138581Y-45103707D01*
X103140339Y-45104509D01*
X103198909Y-45129272D01*
X103227925Y-45138391D01*
X103232384Y-45110822D01*
X103236201Y-45034620D01*
X103239101Y-44919541D01*
X103240809Y-44775341D01*
X103241149Y-44669814D01*
X103239412Y-44465613D01*
X103232618Y-44310697D01*
X103218393Y-44196024D01*
X103194362Y-44112551D01*
X103158152Y-44051236D01*
X103107388Y-44003034D01*
X103057261Y-43969393D01*
X102936725Y-43924619D01*
X102796443Y-43914521D01*
X102664310Y-43940018D01*
G36*
X103685594Y-43935156D02*
G01*
X103601531Y-43973393D01*
X103535550Y-44019726D01*
X103487206Y-44071532D01*
X103453828Y-44138363D01*
X103432747Y-44229769D01*
X103421293Y-44355301D01*
X103416797Y-44524508D01*
X103416322Y-44635933D01*
X103416322Y-45070627D01*
X103490684Y-45104509D01*
X103549254Y-45129272D01*
X103578270Y-45138391D01*
X103583821Y-45111257D01*
X103588225Y-45038094D01*
X103590922Y-44931263D01*
X103591494Y-44846437D01*
X103593954Y-44723887D01*
X103600588Y-44626668D01*
X103610274Y-44567134D01*
X103617968Y-44554483D01*
X103669689Y-44567402D01*
X103750883Y-44600539D01*
X103844898Y-44645461D01*
X103935083Y-44693735D01*
X104004785Y-44736928D01*
X104037352Y-44766608D01*
X104037481Y-44766929D01*
X104034680Y-44821857D01*
X104009561Y-44874292D01*
X103965459Y-44916881D01*
X103901091Y-44931126D01*
X103846079Y-44929466D01*
X103768165Y-44928245D01*
X103727268Y-44946498D01*
X103702705Y-44994726D01*
X103699608Y-45003820D01*
X103688960Y-45072598D01*
X103717435Y-45114360D01*
X103791656Y-45134263D01*
X103871832Y-45137944D01*
X104016110Y-45110658D01*
X104090797Y-45071690D01*
X104183037Y-44980148D01*
X104231957Y-44867782D01*
X104236346Y-44749051D01*
X104194999Y-44638411D01*
X104132803Y-44569080D01*
X104070706Y-44530265D01*
X103973105Y-44481125D01*
X103859368Y-44431292D01*
X103840410Y-44423677D01*
X103715479Y-44368545D01*
X103643461Y-44319954D01*
X103620300Y-44271647D01*
X103641936Y-44217370D01*
X103679080Y-44174943D01*
X103766873Y-44122702D01*
X103863470Y-44118784D01*
X103952056Y-44159041D01*
X104015814Y-44239326D01*
X104024183Y-44260040D01*
X104072904Y-44336225D01*
X104144035Y-44392785D01*
X104233793Y-44439201D01*
X104233793Y-44307584D01*
X104228510Y-44227168D01*
X104205858Y-44163786D01*
X104155633Y-44096163D01*
X104107418Y-44044076D01*
X104032446Y-43970322D01*
X103974194Y-43930702D01*
X103911628Y-43914810D01*
X103840807Y-43912184D01*
X103685594Y-43935156D01*
G37*
X103685594Y-43935156D02*
X103601531Y-43973393D01*
X103535550Y-44019726D01*
X103487206Y-44071532D01*
X103453828Y-44138363D01*
X103432747Y-44229769D01*
X103421293Y-44355301D01*
X103416797Y-44524508D01*
X103416322Y-44635933D01*
X103416322Y-45070627D01*
X103490684Y-45104509D01*
X103549254Y-45129272D01*
X103578270Y-45138391D01*
X103583821Y-45111257D01*
X103588225Y-45038094D01*
X103590922Y-44931263D01*
X103591494Y-44846437D01*
X103593954Y-44723887D01*
X103600588Y-44626668D01*
X103610274Y-44567134D01*
X103617968Y-44554483D01*
X103669689Y-44567402D01*
X103750883Y-44600539D01*
X103844898Y-44645461D01*
X103935083Y-44693735D01*
X104004785Y-44736928D01*
X104037352Y-44766608D01*
X104037481Y-44766929D01*
X104034680Y-44821857D01*
X104009561Y-44874292D01*
X103965459Y-44916881D01*
X103901091Y-44931126D01*
X103846079Y-44929466D01*
X103768165Y-44928245D01*
X103727268Y-44946498D01*
X103702705Y-44994726D01*
X103699608Y-45003820D01*
X103688960Y-45072598D01*
X103717435Y-45114360D01*
X103791656Y-45134263D01*
X103871832Y-45137944D01*
X104016110Y-45110658D01*
X104090797Y-45071690D01*
X104183037Y-44980148D01*
X104231957Y-44867782D01*
X104236346Y-44749051D01*
X104194999Y-44638411D01*
X104132803Y-44569080D01*
X104070706Y-44530265D01*
X103973105Y-44481125D01*
X103859368Y-44431292D01*
X103840410Y-44423677D01*
X103715479Y-44368545D01*
X103643461Y-44319954D01*
X103620300Y-44271647D01*
X103641936Y-44217370D01*
X103679080Y-44174943D01*
X103766873Y-44122702D01*
X103863470Y-44118784D01*
X103952056Y-44159041D01*
X104015814Y-44239326D01*
X104024183Y-44260040D01*
X104072904Y-44336225D01*
X104144035Y-44392785D01*
X104233793Y-44439201D01*
X104233793Y-44307584D01*
X104228510Y-44227168D01*
X104205858Y-44163786D01*
X104155633Y-44096163D01*
X104107418Y-44044076D01*
X104032446Y-43970322D01*
X103974194Y-43930702D01*
X103911628Y-43914810D01*
X103840807Y-43912184D01*
X103685594Y-43935156D01*
G36*
X104419876Y-43939840D02*
G01*
X104415421Y-44016653D01*
X104411929Y-44133391D01*
X104409685Y-44280821D01*
X104408965Y-44435455D01*
X104408965Y-44958727D01*
X104501355Y-45051117D01*
X104565022Y-45108047D01*
X104620911Y-45131107D01*
X104697298Y-45129647D01*
X104727620Y-45125934D01*
X104822390Y-45115126D01*
X104900778Y-45108933D01*
X104919885Y-45108361D01*
X104984301Y-45112102D01*
X105076429Y-45121494D01*
X105112150Y-45125934D01*
X105199886Y-45132801D01*
X105258847Y-45117885D01*
X105317310Y-45071835D01*
X105338415Y-45051117D01*
X105430805Y-44958727D01*
X105430805Y-43979947D01*
X105356442Y-43946066D01*
X105292410Y-43920970D01*
X105254948Y-43912184D01*
X105245343Y-43939950D01*
X105236365Y-44017530D01*
X105228614Y-44136348D01*
X105222686Y-44287828D01*
X105219827Y-44415805D01*
X105211839Y-44919425D01*
X105142152Y-44929278D01*
X105078771Y-44922389D01*
X105047714Y-44900083D01*
X105039033Y-44858379D01*
X105031622Y-44769544D01*
X105026069Y-44644834D01*
X105022964Y-44495507D01*
X105022516Y-44418661D01*
X105022069Y-43976287D01*
X104930126Y-43944235D01*
X104865051Y-43922443D01*
X104829653Y-43912281D01*
X104828632Y-43912184D01*
X104825080Y-43939809D01*
X104821177Y-44016411D01*
X104817249Y-44132579D01*
X104813624Y-44278904D01*
X104811092Y-44415805D01*
X104803103Y-44919425D01*
X104627931Y-44919425D01*
X104619893Y-44459965D01*
X104611854Y-44000505D01*
X104526457Y-43956344D01*
X104463407Y-43926019D01*
X104426090Y-43912258D01*
X104425013Y-43912184D01*
X104419876Y-43939840D01*
G37*
X104419876Y-43939840D02*
X104415421Y-44016653D01*
X104411929Y-44133391D01*
X104409685Y-44280821D01*
X104408965Y-44435455D01*
X104408965Y-44958727D01*
X104501355Y-45051117D01*
X104565022Y-45108047D01*
X104620911Y-45131107D01*
X104697298Y-45129647D01*
X104727620Y-45125934D01*
X104822390Y-45115126D01*
X104900778Y-45108933D01*
X104919885Y-45108361D01*
X104984301Y-45112102D01*
X105076429Y-45121494D01*
X105112150Y-45125934D01*
X105199886Y-45132801D01*
X105258847Y-45117885D01*
X105317310Y-45071835D01*
X105338415Y-45051117D01*
X105430805Y-44958727D01*
X105430805Y-43979947D01*
X105356442Y-43946066D01*
X105292410Y-43920970D01*
X105254948Y-43912184D01*
X105245343Y-43939950D01*
X105236365Y-44017530D01*
X105228614Y-44136348D01*
X105222686Y-44287828D01*
X105219827Y-44415805D01*
X105211839Y-44919425D01*
X105142152Y-44929278D01*
X105078771Y-44922389D01*
X105047714Y-44900083D01*
X105039033Y-44858379D01*
X105031622Y-44769544D01*
X105026069Y-44644834D01*
X105022964Y-44495507D01*
X105022516Y-44418661D01*
X105022069Y-43976287D01*
X104930126Y-43944235D01*
X104865051Y-43922443D01*
X104829653Y-43912281D01*
X104828632Y-43912184D01*
X104825080Y-43939809D01*
X104821177Y-44016411D01*
X104817249Y-44132579D01*
X104813624Y-44278904D01*
X104811092Y-44415805D01*
X104803103Y-44919425D01*
X104627931Y-44919425D01*
X104619893Y-44459965D01*
X104611854Y-44000505D01*
X104526457Y-43956344D01*
X104463407Y-43926019D01*
X104426090Y-43912258D01*
X104425013Y-43912184D01*
X104419876Y-43939840D01*
G36*
X105606086Y-44154455D02*
G01*
X105606457Y-44372661D01*
X105607892Y-44540519D01*
X105610998Y-44666070D01*
X105616378Y-44757355D01*
X105624638Y-44822415D01*
X105636384Y-44869291D01*
X105652219Y-44906024D01*
X105664210Y-44926991D01*
X105763510Y-45040694D01*
X105889412Y-45111965D01*
X106028709Y-45137538D01*
X106168195Y-45114150D01*
X106251257Y-45072119D01*
X106338455Y-44999411D01*
X106397883Y-44910612D01*
X106433739Y-44794320D01*
X106450219Y-44639135D01*
X106452553Y-44525287D01*
X106452239Y-44517106D01*
X106248276Y-44517106D01*
X106247030Y-44647657D01*
X106241322Y-44734080D01*
X106228196Y-44790618D01*
X106204694Y-44831514D01*
X106176614Y-44862362D01*
X106082312Y-44921905D01*
X105981060Y-44926992D01*
X105885364Y-44877279D01*
X105877916Y-44870543D01*
X105846126Y-44835502D01*
X105826192Y-44793811D01*
X105815400Y-44731762D01*
X105811035Y-44635644D01*
X105810345Y-44529379D01*
X105811841Y-44395880D01*
X105818036Y-44306822D01*
X105831486Y-44248293D01*
X105854749Y-44206382D01*
X105873825Y-44184123D01*
X105962437Y-44127985D01*
X106064492Y-44121235D01*
X106161905Y-44164114D01*
X106180704Y-44180032D01*
X106212707Y-44215382D01*
X106232682Y-44257502D01*
X106243407Y-44320251D01*
X106247661Y-44417487D01*
X106248276Y-44517106D01*
X106452239Y-44517106D01*
X106445496Y-44341947D01*
X106421528Y-44204195D01*
X106376452Y-44100632D01*
X106306072Y-44019856D01*
X106251257Y-43978455D01*
X106151624Y-43933728D01*
X106036145Y-43912967D01*
X105928801Y-43918525D01*
X105868736Y-43940943D01*
X105845165Y-43947323D01*
X105829523Y-43923535D01*
X105818605Y-43859788D01*
X105810345Y-43762687D01*
X105801301Y-43654541D01*
X105788739Y-43589475D01*
X105765881Y-43552268D01*
X105725949Y-43527699D01*
X105700862Y-43516819D01*
X105605977Y-43477072D01*
X105606086Y-44154455D01*
G37*
X105606086Y-44154455D02*
X105606457Y-44372661D01*
X105607892Y-44540519D01*
X105610998Y-44666070D01*
X105616378Y-44757355D01*
X105624638Y-44822415D01*
X105636384Y-44869291D01*
X105652219Y-44906024D01*
X105664210Y-44926991D01*
X105763510Y-45040694D01*
X105889412Y-45111965D01*
X106028709Y-45137538D01*
X106168195Y-45114150D01*
X106251257Y-45072119D01*
X106338455Y-44999411D01*
X106397883Y-44910612D01*
X106433739Y-44794320D01*
X106450219Y-44639135D01*
X106452553Y-44525287D01*
X106452239Y-44517106D01*
X106248276Y-44517106D01*
X106247030Y-44647657D01*
X106241322Y-44734080D01*
X106228196Y-44790618D01*
X106204694Y-44831514D01*
X106176614Y-44862362D01*
X106082312Y-44921905D01*
X105981060Y-44926992D01*
X105885364Y-44877279D01*
X105877916Y-44870543D01*
X105846126Y-44835502D01*
X105826192Y-44793811D01*
X105815400Y-44731762D01*
X105811035Y-44635644D01*
X105810345Y-44529379D01*
X105811841Y-44395880D01*
X105818036Y-44306822D01*
X105831486Y-44248293D01*
X105854749Y-44206382D01*
X105873825Y-44184123D01*
X105962437Y-44127985D01*
X106064492Y-44121235D01*
X106161905Y-44164114D01*
X106180704Y-44180032D01*
X106212707Y-44215382D01*
X106232682Y-44257502D01*
X106243407Y-44320251D01*
X106247661Y-44417487D01*
X106248276Y-44517106D01*
X106452239Y-44517106D01*
X106445496Y-44341947D01*
X106421528Y-44204195D01*
X106376452Y-44100632D01*
X106306072Y-44019856D01*
X106251257Y-43978455D01*
X106151624Y-43933728D01*
X106036145Y-43912967D01*
X105928801Y-43918525D01*
X105868736Y-43940943D01*
X105845165Y-43947323D01*
X105829523Y-43923535D01*
X105818605Y-43859788D01*
X105810345Y-43762687D01*
X105801301Y-43654541D01*
X105788739Y-43589475D01*
X105765881Y-43552268D01*
X105725949Y-43527699D01*
X105700862Y-43516819D01*
X105605977Y-43477072D01*
X105606086Y-44154455D01*
G36*
X106934057Y-43921920D02*
G01*
X106801435Y-43970859D01*
X106693990Y-44057419D01*
X106651968Y-44118352D01*
X106606157Y-44230161D01*
X106607109Y-44311006D01*
X106655192Y-44365378D01*
X106672983Y-44374624D01*
X106749796Y-44403450D01*
X106789024Y-44396065D01*
X106802311Y-44347658D01*
X106802988Y-44320920D01*
X106827314Y-44222548D01*
X106890719Y-44153734D01*
X106978846Y-44120498D01*
X107077337Y-44128861D01*
X107157398Y-44172296D01*
X107184439Y-44197072D01*
X107203606Y-44227129D01*
X107216554Y-44272565D01*
X107224936Y-44343476D01*
X107230407Y-44449960D01*
X107234622Y-44602112D01*
X107235713Y-44650287D01*
X107239693Y-44815095D01*
X107244219Y-44931088D01*
X107251005Y-45007833D01*
X107261769Y-45054893D01*
X107278227Y-45081835D01*
X107302094Y-45098223D01*
X107317374Y-45105463D01*
X107382267Y-45130220D01*
X107420466Y-45138391D01*
X107433088Y-45111103D01*
X107440792Y-45028603D01*
X107443620Y-44889941D01*
X107441614Y-44694162D01*
X107440989Y-44663965D01*
X107436579Y-44485349D01*
X107431365Y-44354923D01*
X107423945Y-44262492D01*
X107412918Y-44197858D01*
X107396883Y-44150825D01*
X107374439Y-44111196D01*
X107362698Y-44094215D01*
X107295381Y-44019080D01*
X107220090Y-43960638D01*
X107210872Y-43955536D01*
X107075867Y-43915260D01*
X106934057Y-43921920D01*
G37*
X106934057Y-43921920D02*
X106801435Y-43970859D01*
X106693990Y-44057419D01*
X106651968Y-44118352D01*
X106606157Y-44230161D01*
X106607109Y-44311006D01*
X106655192Y-44365378D01*
X106672983Y-44374624D01*
X106749796Y-44403450D01*
X106789024Y-44396065D01*
X106802311Y-44347658D01*
X106802988Y-44320920D01*
X106827314Y-44222548D01*
X106890719Y-44153734D01*
X106978846Y-44120498D01*
X107077337Y-44128861D01*
X107157398Y-44172296D01*
X107184439Y-44197072D01*
X107203606Y-44227129D01*
X107216554Y-44272565D01*
X107224936Y-44343476D01*
X107230407Y-44449960D01*
X107234622Y-44602112D01*
X107235713Y-44650287D01*
X107239693Y-44815095D01*
X107244219Y-44931088D01*
X107251005Y-45007833D01*
X107261769Y-45054893D01*
X107278227Y-45081835D01*
X107302094Y-45098223D01*
X107317374Y-45105463D01*
X107382267Y-45130220D01*
X107420466Y-45138391D01*
X107433088Y-45111103D01*
X107440792Y-45028603D01*
X107443620Y-44889941D01*
X107441614Y-44694162D01*
X107440989Y-44663965D01*
X107436579Y-44485349D01*
X107431365Y-44354923D01*
X107423945Y-44262492D01*
X107412918Y-44197858D01*
X107396883Y-44150825D01*
X107374439Y-44111196D01*
X107362698Y-44094215D01*
X107295381Y-44019080D01*
X107220090Y-43960638D01*
X107210872Y-43955536D01*
X107075867Y-43915260D01*
X106934057Y-43921920D01*
G36*
X107920056Y-43924360D02*
G01*
X107805657Y-43966842D01*
X107804348Y-43967658D01*
X107733597Y-44019730D01*
X107681364Y-44080584D01*
X107644629Y-44159887D01*
X107620366Y-44267309D01*
X107605555Y-44412517D01*
X107597171Y-44605179D01*
X107596436Y-44632628D01*
X107585880Y-45046521D01*
X107674709Y-45092456D01*
X107738982Y-45123498D01*
X107777790Y-45138206D01*
X107779585Y-45138391D01*
X107786300Y-45111250D01*
X107791635Y-45038041D01*
X107794917Y-44931081D01*
X107795632Y-44844469D01*
X107795649Y-44704162D01*
X107802063Y-44616051D01*
X107824420Y-44574025D01*
X107872268Y-44571975D01*
X107955151Y-44603790D01*
X108080287Y-44662272D01*
X108172303Y-44710845D01*
X108219629Y-44752986D01*
X108233542Y-44798916D01*
X108233563Y-44801189D01*
X108210605Y-44880311D01*
X108142630Y-44923055D01*
X108038602Y-44929246D01*
X107963670Y-44928172D01*
X107924161Y-44949753D01*
X107899522Y-45001591D01*
X107885341Y-45067632D01*
X107905777Y-45105104D01*
X107913472Y-45110467D01*
X107985917Y-45132006D01*
X108087367Y-45135055D01*
X108191843Y-45120778D01*
X108265875Y-45094688D01*
X108368228Y-45007785D01*
X108426409Y-44886816D01*
X108437931Y-44792308D01*
X108429138Y-44707062D01*
X108397320Y-44637476D01*
X108334316Y-44575672D01*
X108231969Y-44513772D01*
X108082118Y-44443897D01*
X108072988Y-44439948D01*
X107938003Y-44377588D01*
X107854706Y-44326446D01*
X107819003Y-44280488D01*
X107826797Y-44233683D01*
X107873993Y-44179998D01*
X107888106Y-44167644D01*
X107982641Y-44119741D01*
X108080594Y-44121758D01*
X108165903Y-44168724D01*
X108222504Y-44255669D01*
X108227763Y-44272734D01*
X108278977Y-44355504D01*
X108343963Y-44395372D01*
X108437931Y-44434882D01*
X108437931Y-44332658D01*
X108409347Y-44184072D01*
X108324505Y-44047784D01*
X108280355Y-44002191D01*
X108179995Y-43943674D01*
X108052365Y-43917184D01*
X107920056Y-43924360D01*
G37*
X107920056Y-43924360D02*
X107805657Y-43966842D01*
X107804348Y-43967658D01*
X107733597Y-44019730D01*
X107681364Y-44080584D01*
X107644629Y-44159887D01*
X107620366Y-44267309D01*
X107605555Y-44412517D01*
X107597171Y-44605179D01*
X107596436Y-44632628D01*
X107585880Y-45046521D01*
X107674709Y-45092456D01*
X107738982Y-45123498D01*
X107777790Y-45138206D01*
X107779585Y-45138391D01*
X107786300Y-45111250D01*
X107791635Y-45038041D01*
X107794917Y-44931081D01*
X107795632Y-44844469D01*
X107795649Y-44704162D01*
X107802063Y-44616051D01*
X107824420Y-44574025D01*
X107872268Y-44571975D01*
X107955151Y-44603790D01*
X108080287Y-44662272D01*
X108172303Y-44710845D01*
X108219629Y-44752986D01*
X108233542Y-44798916D01*
X108233563Y-44801189D01*
X108210605Y-44880311D01*
X108142630Y-44923055D01*
X108038602Y-44929246D01*
X107963670Y-44928172D01*
X107924161Y-44949753D01*
X107899522Y-45001591D01*
X107885341Y-45067632D01*
X107905777Y-45105104D01*
X107913472Y-45110467D01*
X107985917Y-45132006D01*
X108087367Y-45135055D01*
X108191843Y-45120778D01*
X108265875Y-45094688D01*
X108368228Y-45007785D01*
X108426409Y-44886816D01*
X108437931Y-44792308D01*
X108429138Y-44707062D01*
X108397320Y-44637476D01*
X108334316Y-44575672D01*
X108231969Y-44513772D01*
X108082118Y-44443897D01*
X108072988Y-44439948D01*
X107938003Y-44377588D01*
X107854706Y-44326446D01*
X107819003Y-44280488D01*
X107826797Y-44233683D01*
X107873993Y-44179998D01*
X107888106Y-44167644D01*
X107982641Y-44119741D01*
X108080594Y-44121758D01*
X108165903Y-44168724D01*
X108222504Y-44255669D01*
X108227763Y-44272734D01*
X108278977Y-44355504D01*
X108343963Y-44395372D01*
X108437931Y-44434882D01*
X108437931Y-44332658D01*
X108409347Y-44184072D01*
X108324505Y-44047784D01*
X108280355Y-44002191D01*
X108179995Y-43943674D01*
X108052365Y-43917184D01*
X107920056Y-43924360D01*
G36*
X109255402Y-43723857D02*
G01*
X109246846Y-43843188D01*
X109237019Y-43913506D01*
X109223401Y-43944179D01*
X109203473Y-43944571D01*
X109197011Y-43940910D01*
X109111060Y-43914398D01*
X108999255Y-43915946D01*
X108885586Y-43943199D01*
X108814490Y-43978455D01*
X108741595Y-44034778D01*
X108688307Y-44098519D01*
X108651725Y-44179510D01*
X108628950Y-44287586D01*
X108617081Y-44432580D01*
X108613218Y-44624326D01*
X108613149Y-44661109D01*
X108613103Y-45074288D01*
X108705046Y-45106339D01*
X108770348Y-45128144D01*
X108806176Y-45138297D01*
X108807230Y-45138391D01*
X108810758Y-45110860D01*
X108813761Y-45034923D01*
X108816010Y-44920565D01*
X108817276Y-44777769D01*
X108817471Y-44690951D01*
X108817877Y-44519773D01*
X108819968Y-44397088D01*
X108825053Y-44313000D01*
X108834440Y-44257614D01*
X108849439Y-44221032D01*
X108871358Y-44193359D01*
X108885043Y-44180032D01*
X108979051Y-44126328D01*
X109081636Y-44122307D01*
X109174710Y-44167725D01*
X109191922Y-44184123D01*
X109217168Y-44214957D01*
X109234680Y-44251531D01*
X109245858Y-44304415D01*
X109252104Y-44384177D01*
X109254818Y-44501385D01*
X109255402Y-44662991D01*
X109255402Y-45074288D01*
X109347345Y-45106339D01*
X109412647Y-45128144D01*
X109448475Y-45138297D01*
X109449529Y-45138391D01*
X109452225Y-45110448D01*
X109454655Y-45031630D01*
X109456722Y-44909453D01*
X109458329Y-44751432D01*
X109459377Y-44565083D01*
X109459769Y-44357920D01*
X109459770Y-44348706D01*
X109459770Y-43559020D01*
X109364885Y-43518997D01*
X109270000Y-43478973D01*
X109255402Y-43723857D01*
G37*
X109255402Y-43723857D02*
X109246846Y-43843188D01*
X109237019Y-43913506D01*
X109223401Y-43944179D01*
X109203473Y-43944571D01*
X109197011Y-43940910D01*
X109111060Y-43914398D01*
X108999255Y-43915946D01*
X108885586Y-43943199D01*
X108814490Y-43978455D01*
X108741595Y-44034778D01*
X108688307Y-44098519D01*
X108651725Y-44179510D01*
X108628950Y-44287586D01*
X108617081Y-44432580D01*
X108613218Y-44624326D01*
X108613149Y-44661109D01*
X108613103Y-45074288D01*
X108705046Y-45106339D01*
X108770348Y-45128144D01*
X108806176Y-45138297D01*
X108807230Y-45138391D01*
X108810758Y-45110860D01*
X108813761Y-45034923D01*
X108816010Y-44920565D01*
X108817276Y-44777769D01*
X108817471Y-44690951D01*
X108817877Y-44519773D01*
X108819968Y-44397088D01*
X108825053Y-44313000D01*
X108834440Y-44257614D01*
X108849439Y-44221032D01*
X108871358Y-44193359D01*
X108885043Y-44180032D01*
X108979051Y-44126328D01*
X109081636Y-44122307D01*
X109174710Y-44167725D01*
X109191922Y-44184123D01*
X109217168Y-44214957D01*
X109234680Y-44251531D01*
X109245858Y-44304415D01*
X109252104Y-44384177D01*
X109254818Y-44501385D01*
X109255402Y-44662991D01*
X109255402Y-45074288D01*
X109347345Y-45106339D01*
X109412647Y-45128144D01*
X109448475Y-45138297D01*
X109449529Y-45138391D01*
X109452225Y-45110448D01*
X109454655Y-45031630D01*
X109456722Y-44909453D01*
X109458329Y-44751432D01*
X109459377Y-44565083D01*
X109459769Y-44357920D01*
X109459770Y-44348706D01*
X109459770Y-43559020D01*
X109364885Y-43518997D01*
X109270000Y-43478973D01*
X109255402Y-43723857D01*
G36*
X111684448Y-43884676D02*
G01*
X111569342Y-43962111D01*
X111480389Y-44073949D01*
X111427251Y-44216265D01*
X111416503Y-44321015D01*
X111417724Y-44364726D01*
X111427944Y-44398194D01*
X111456039Y-44428179D01*
X111510884Y-44461440D01*
X111601355Y-44504738D01*
X111736328Y-44564833D01*
X111737011Y-44565134D01*
X111861249Y-44622037D01*
X111963127Y-44672565D01*
X112032233Y-44711280D01*
X112058154Y-44732740D01*
X112058161Y-44732913D01*
X112035315Y-44779644D01*
X111981891Y-44831154D01*
X111920558Y-44868261D01*
X111889485Y-44875632D01*
X111804711Y-44850138D01*
X111731707Y-44786291D01*
X111696087Y-44716094D01*
X111661820Y-44664343D01*
X111594697Y-44605409D01*
X111515792Y-44554496D01*
X111446179Y-44526809D01*
X111431623Y-44525287D01*
X111415237Y-44550321D01*
X111414250Y-44614311D01*
X111426292Y-44700593D01*
X111448993Y-44792501D01*
X111479986Y-44873369D01*
X111481552Y-44876509D01*
X111574819Y-45006734D01*
X111695696Y-45095311D01*
X111832973Y-45138786D01*
X111975440Y-45133706D01*
X112111888Y-45076616D01*
X112117955Y-45072602D01*
X112225290Y-44975326D01*
X112295868Y-44848409D01*
X112334926Y-44681526D01*
X112340168Y-44634639D01*
X112349452Y-44413329D01*
X112338322Y-44310124D01*
X112058161Y-44310124D01*
X112054521Y-44374503D01*
X112034611Y-44393291D01*
X111984974Y-44379235D01*
X111906733Y-44346009D01*
X111819274Y-44304359D01*
X111817101Y-44303256D01*
X111742970Y-44264265D01*
X111713219Y-44238244D01*
X111720555Y-44210965D01*
X111751447Y-44175121D01*
X111830040Y-44123251D01*
X111914677Y-44119439D01*
X111990597Y-44157189D01*
X112043035Y-44230001D01*
X112058161Y-44310124D01*
X112338322Y-44310124D01*
X112330356Y-44236261D01*
X112281366Y-44095829D01*
X112213164Y-43997447D01*
X112090065Y-43898030D01*
X111954472Y-43848711D01*
X111816045Y-43845568D01*
X111684448Y-43884676D01*
G37*
X111684448Y-43884676D02*
X111569342Y-43962111D01*
X111480389Y-44073949D01*
X111427251Y-44216265D01*
X111416503Y-44321015D01*
X111417724Y-44364726D01*
X111427944Y-44398194D01*
X111456039Y-44428179D01*
X111510884Y-44461440D01*
X111601355Y-44504738D01*
X111736328Y-44564833D01*
X111737011Y-44565134D01*
X111861249Y-44622037D01*
X111963127Y-44672565D01*
X112032233Y-44711280D01*
X112058154Y-44732740D01*
X112058161Y-44732913D01*
X112035315Y-44779644D01*
X111981891Y-44831154D01*
X111920558Y-44868261D01*
X111889485Y-44875632D01*
X111804711Y-44850138D01*
X111731707Y-44786291D01*
X111696087Y-44716094D01*
X111661820Y-44664343D01*
X111594697Y-44605409D01*
X111515792Y-44554496D01*
X111446179Y-44526809D01*
X111431623Y-44525287D01*
X111415237Y-44550321D01*
X111414250Y-44614311D01*
X111426292Y-44700593D01*
X111448993Y-44792501D01*
X111479986Y-44873369D01*
X111481552Y-44876509D01*
X111574819Y-45006734D01*
X111695696Y-45095311D01*
X111832973Y-45138786D01*
X111975440Y-45133706D01*
X112111888Y-45076616D01*
X112117955Y-45072602D01*
X112225290Y-44975326D01*
X112295868Y-44848409D01*
X112334926Y-44681526D01*
X112340168Y-44634639D01*
X112349452Y-44413329D01*
X112338322Y-44310124D01*
X112058161Y-44310124D01*
X112054521Y-44374503D01*
X112034611Y-44393291D01*
X111984974Y-44379235D01*
X111906733Y-44346009D01*
X111819274Y-44304359D01*
X111817101Y-44303256D01*
X111742970Y-44264265D01*
X111713219Y-44238244D01*
X111720555Y-44210965D01*
X111751447Y-44175121D01*
X111830040Y-44123251D01*
X111914677Y-44119439D01*
X111990597Y-44157189D01*
X112043035Y-44230001D01*
X112058161Y-44310124D01*
X112338322Y-44310124D01*
X112330356Y-44236261D01*
X112281366Y-44095829D01*
X112213164Y-43997447D01*
X112090065Y-43898030D01*
X111954472Y-43848711D01*
X111816045Y-43845568D01*
X111684448Y-43884676D01*
G36*
X113951779Y-43866015D02*
G01*
X113814939Y-43937968D01*
X113713949Y-44053766D01*
X113678075Y-44128213D01*
X113650161Y-44239992D01*
X113635871Y-44381227D01*
X113634516Y-44535371D01*
X113645405Y-44685879D01*
X113667847Y-44816205D01*
X113701150Y-44909803D01*
X113711385Y-44925922D01*
X113832618Y-45046249D01*
X113976613Y-45118317D01*
X114132861Y-45139408D01*
X114290852Y-45106802D01*
X114334820Y-45087253D01*
X114420444Y-45027012D01*
X114495592Y-44947135D01*
X114502694Y-44937004D01*
X114531561Y-44888181D01*
X114550643Y-44835990D01*
X114561916Y-44767285D01*
X114567355Y-44668918D01*
X114568938Y-44527744D01*
X114568965Y-44496092D01*
X114568893Y-44486019D01*
X114277011Y-44486019D01*
X114275313Y-44619256D01*
X114268628Y-44707674D01*
X114254575Y-44764785D01*
X114230771Y-44804102D01*
X114218621Y-44817241D01*
X114148764Y-44867172D01*
X114080941Y-44864895D01*
X114012365Y-44821584D01*
X113971465Y-44775346D01*
X113947242Y-44707857D01*
X113933639Y-44601433D01*
X113932706Y-44589020D01*
X113930384Y-44396147D01*
X113954650Y-44252900D01*
X114005176Y-44160160D01*
X114081632Y-44118807D01*
X114108924Y-44116552D01*
X114180589Y-44127893D01*
X114229610Y-44167184D01*
X114259582Y-44242326D01*
X114274101Y-44361222D01*
X114277011Y-44486019D01*
X114568893Y-44486019D01*
X114567878Y-44345659D01*
X114563312Y-44240549D01*
X114553312Y-44167714D01*
X114535921Y-44114108D01*
X114509184Y-44066681D01*
X114503276Y-44057864D01*
X114403968Y-43939007D01*
X114295758Y-43870008D01*
X114164019Y-43842619D01*
X114119283Y-43841281D01*
X113951779Y-43866015D01*
G37*
X113951779Y-43866015D02*
X113814939Y-43937968D01*
X113713949Y-44053766D01*
X113678075Y-44128213D01*
X113650161Y-44239992D01*
X113635871Y-44381227D01*
X113634516Y-44535371D01*
X113645405Y-44685879D01*
X113667847Y-44816205D01*
X113701150Y-44909803D01*
X113711385Y-44925922D01*
X113832618Y-45046249D01*
X113976613Y-45118317D01*
X114132861Y-45139408D01*
X114290852Y-45106802D01*
X114334820Y-45087253D01*
X114420444Y-45027012D01*
X114495592Y-44947135D01*
X114502694Y-44937004D01*
X114531561Y-44888181D01*
X114550643Y-44835990D01*
X114561916Y-44767285D01*
X114567355Y-44668918D01*
X114568938Y-44527744D01*
X114568965Y-44496092D01*
X114568893Y-44486019D01*
X114277011Y-44486019D01*
X114275313Y-44619256D01*
X114268628Y-44707674D01*
X114254575Y-44764785D01*
X114230771Y-44804102D01*
X114218621Y-44817241D01*
X114148764Y-44867172D01*
X114080941Y-44864895D01*
X114012365Y-44821584D01*
X113971465Y-44775346D01*
X113947242Y-44707857D01*
X113933639Y-44601433D01*
X113932706Y-44589020D01*
X113930384Y-44396147D01*
X113954650Y-44252900D01*
X114005176Y-44160160D01*
X114081632Y-44118807D01*
X114108924Y-44116552D01*
X114180589Y-44127893D01*
X114229610Y-44167184D01*
X114259582Y-44242326D01*
X114274101Y-44361222D01*
X114277011Y-44486019D01*
X114568893Y-44486019D01*
X114567878Y-44345659D01*
X114563312Y-44240549D01*
X114553312Y-44167714D01*
X114535921Y-44114108D01*
X114509184Y-44066681D01*
X114503276Y-44057864D01*
X114403968Y-43939007D01*
X114295758Y-43870008D01*
X114164019Y-43842619D01*
X114119283Y-43841281D01*
X113951779Y-43866015D01*
G36*
X110582571Y-43877719D02*
G01*
X110488877Y-43931914D01*
X110423736Y-43985707D01*
X110376093Y-44042066D01*
X110343272Y-44110987D01*
X110322594Y-44202468D01*
X110311380Y-44326506D01*
X110306951Y-44493098D01*
X110306437Y-44612851D01*
X110306437Y-45053659D01*
X110430517Y-45109283D01*
X110554598Y-45164907D01*
X110569195Y-44682095D01*
X110575227Y-44501779D01*
X110581555Y-44370901D01*
X110589394Y-44280511D01*
X110599963Y-44221664D01*
X110614477Y-44185413D01*
X110634152Y-44162810D01*
X110640465Y-44157917D01*
X110736112Y-44119706D01*
X110832793Y-44134827D01*
X110890345Y-44174943D01*
X110913755Y-44203370D01*
X110929961Y-44240672D01*
X110940259Y-44297223D01*
X110945951Y-44383394D01*
X110948336Y-44509558D01*
X110948736Y-44641042D01*
X110948814Y-44805999D01*
X110951639Y-44922761D01*
X110961093Y-45001510D01*
X110981060Y-45052431D01*
X111015424Y-45085706D01*
X111068068Y-45111520D01*
X111138383Y-45138344D01*
X111215180Y-45167542D01*
X111206038Y-44649346D01*
X111202357Y-44462539D01*
X111198050Y-44324490D01*
X111191877Y-44225568D01*
X111182598Y-44156145D01*
X111168973Y-44106590D01*
X111149761Y-44067273D01*
X111126598Y-44032584D01*
X111014848Y-43921770D01*
X110878487Y-43857689D01*
X110730175Y-43842339D01*
X110582571Y-43877719D01*
G37*
X110582571Y-43877719D02*
X110488877Y-43931914D01*
X110423736Y-43985707D01*
X110376093Y-44042066D01*
X110343272Y-44110987D01*
X110322594Y-44202468D01*
X110311380Y-44326506D01*
X110306951Y-44493098D01*
X110306437Y-44612851D01*
X110306437Y-45053659D01*
X110430517Y-45109283D01*
X110554598Y-45164907D01*
X110569195Y-44682095D01*
X110575227Y-44501779D01*
X110581555Y-44370901D01*
X110589394Y-44280511D01*
X110599963Y-44221664D01*
X110614477Y-44185413D01*
X110634152Y-44162810D01*
X110640465Y-44157917D01*
X110736112Y-44119706D01*
X110832793Y-44134827D01*
X110890345Y-44174943D01*
X110913755Y-44203370D01*
X110929961Y-44240672D01*
X110940259Y-44297223D01*
X110945951Y-44383394D01*
X110948336Y-44509558D01*
X110948736Y-44641042D01*
X110948814Y-44805999D01*
X110951639Y-44922761D01*
X110961093Y-45001510D01*
X110981060Y-45052431D01*
X111015424Y-45085706D01*
X111068068Y-45111520D01*
X111138383Y-45138344D01*
X111215180Y-45167542D01*
X111206038Y-44649346D01*
X111202357Y-44462539D01*
X111198050Y-44324490D01*
X111191877Y-44225568D01*
X111182598Y-44156145D01*
X111168973Y-44106590D01*
X111149761Y-44067273D01*
X111126598Y-44032584D01*
X111014848Y-43921770D01*
X110878487Y-43857689D01*
X110730175Y-43842339D01*
X110582571Y-43877719D01*
G36*
X112828100Y-43861903D02*
G01*
X112716550Y-43917522D01*
X112618092Y-44019931D01*
X112590977Y-44057864D01*
X112561438Y-44107500D01*
X112542272Y-44161412D01*
X112531307Y-44233364D01*
X112526371Y-44337122D01*
X112525287Y-44474101D01*
X112530182Y-44661815D01*
X112547196Y-44802758D01*
X112579823Y-44907908D01*
X112631558Y-44988243D01*
X112705896Y-45054741D01*
X112711358Y-45058678D01*
X112784620Y-45098953D01*
X112872840Y-45118880D01*
X112985038Y-45123793D01*
X113167433Y-45123793D01*
X113167509Y-45300857D01*
X113169207Y-45399470D01*
X113179550Y-45457314D01*
X113206578Y-45492006D01*
X113258332Y-45521164D01*
X113270761Y-45527121D01*
X113328923Y-45555039D01*
X113373956Y-45572672D01*
X113407441Y-45574194D01*
X113430962Y-45553781D01*
X113446100Y-45505607D01*
X113454437Y-45423846D01*
X113457556Y-45302672D01*
X113457040Y-45136260D01*
X113454471Y-44918785D01*
X113453668Y-44853736D01*
X113450778Y-44629502D01*
X113448188Y-44482821D01*
X113167586Y-44482821D01*
X113166009Y-44607326D01*
X113159000Y-44688787D01*
X113143142Y-44742515D01*
X113115019Y-44783823D01*
X113095925Y-44803971D01*
X113017865Y-44862921D01*
X112948753Y-44867720D01*
X112877440Y-44819038D01*
X112875632Y-44817241D01*
X112846617Y-44779618D01*
X112828967Y-44728484D01*
X112820064Y-44649738D01*
X112817291Y-44529276D01*
X112817241Y-44502588D01*
X112823942Y-44336583D01*
X112845752Y-44221505D01*
X112885235Y-44151254D01*
X112944956Y-44119729D01*
X112979472Y-44116552D01*
X113061389Y-44131460D01*
X113117579Y-44180548D01*
X113151402Y-44270362D01*
X113166220Y-44407445D01*
X113167586Y-44482821D01*
X113448188Y-44482821D01*
X113447713Y-44455952D01*
X113443753Y-44325382D01*
X113438174Y-44230087D01*
X113430254Y-44162364D01*
X113419269Y-44114507D01*
X113404499Y-44078813D01*
X113385218Y-44047578D01*
X113376951Y-44035824D01*
X113267288Y-43924797D01*
X113128635Y-43861847D01*
X112968246Y-43844297D01*
X112828100Y-43861903D01*
G37*
X112828100Y-43861903D02*
X112716550Y-43917522D01*
X112618092Y-44019931D01*
X112590977Y-44057864D01*
X112561438Y-44107500D01*
X112542272Y-44161412D01*
X112531307Y-44233364D01*
X112526371Y-44337122D01*
X112525287Y-44474101D01*
X112530182Y-44661815D01*
X112547196Y-44802758D01*
X112579823Y-44907908D01*
X112631558Y-44988243D01*
X112705896Y-45054741D01*
X112711358Y-45058678D01*
X112784620Y-45098953D01*
X112872840Y-45118880D01*
X112985038Y-45123793D01*
X113167433Y-45123793D01*
X113167509Y-45300857D01*
X113169207Y-45399470D01*
X113179550Y-45457314D01*
X113206578Y-45492006D01*
X113258332Y-45521164D01*
X113270761Y-45527121D01*
X113328923Y-45555039D01*
X113373956Y-45572672D01*
X113407441Y-45574194D01*
X113430962Y-45553781D01*
X113446100Y-45505607D01*
X113454437Y-45423846D01*
X113457556Y-45302672D01*
X113457040Y-45136260D01*
X113454471Y-44918785D01*
X113453668Y-44853736D01*
X113450778Y-44629502D01*
X113448188Y-44482821D01*
X113167586Y-44482821D01*
X113166009Y-44607326D01*
X113159000Y-44688787D01*
X113143142Y-44742515D01*
X113115019Y-44783823D01*
X113095925Y-44803971D01*
X113017865Y-44862921D01*
X112948753Y-44867720D01*
X112877440Y-44819038D01*
X112875632Y-44817241D01*
X112846617Y-44779618D01*
X112828967Y-44728484D01*
X112820064Y-44649738D01*
X112817291Y-44529276D01*
X112817241Y-44502588D01*
X112823942Y-44336583D01*
X112845752Y-44221505D01*
X112885235Y-44151254D01*
X112944956Y-44119729D01*
X112979472Y-44116552D01*
X113061389Y-44131460D01*
X113117579Y-44180548D01*
X113151402Y-44270362D01*
X113166220Y-44407445D01*
X113167586Y-44482821D01*
X113448188Y-44482821D01*
X113447713Y-44455952D01*
X113443753Y-44325382D01*
X113438174Y-44230087D01*
X113430254Y-44162364D01*
X113419269Y-44114507D01*
X113404499Y-44078813D01*
X113385218Y-44047578D01*
X113376951Y-44035824D01*
X113267288Y-43924797D01*
X113128635Y-43861847D01*
X112968246Y-43844297D01*
X112828100Y-43861903D01*
D12*
%TO.C,U1*%
X118390000Y-130170000D02*
X95070000Y-130170000D01*
X120930000Y-123270000D02*
X120930000Y-97840000D01*
X95070000Y-130170000D02*
X95070000Y-97840000D01*
X97190000Y-95710000D02*
X118800000Y-95710000D01*
D10*
G36*
X121970000Y-103415000D02*
G01*
X121970000Y-104685000D01*
X121335000Y-104050000D01*
X121970000Y-103415000D01*
G37*
X121970000Y-103415000D02*
X121970000Y-104685000D01*
X121335000Y-104050000D01*
X121970000Y-103415000D01*
D12*
X118390000Y-123270000D02*
X118390000Y-130170000D01*
X97200000Y-95710000D02*
G75*
G03*
X95070000Y-97840000I0J-2130000D01*
G01*
X120930000Y-97840000D02*
G75*
G03*
X118800000Y-95710000I-2130000J0D01*
G01*
D10*
X98191904Y-130502380D02*
X98191904Y-131311904D01*
X98144285Y-131407142D01*
X98096666Y-131454761D01*
X98001428Y-131502380D01*
X97810952Y-131502380D01*
X97715714Y-131454761D01*
X97668095Y-131407142D01*
X97620476Y-131311904D01*
X97620476Y-130502380D01*
X96620476Y-131502380D02*
X97191904Y-131502380D01*
X96906190Y-131502380D02*
X96906190Y-130502380D01*
X97001428Y-130645238D01*
X97096666Y-130740476D01*
X97191904Y-130788095D01*
%TD*%
M02*
