%TF.GenerationSoftware,KiCad,Pcbnew,5.1.12-84ad8e8a86~92~ubuntu20.04.1*%
%TF.CreationDate,2021-11-29T16:52:28+01:00*%
%TF.ProjectId,RGBchristmasStar,52474263-6872-4697-9374-6d6173537461,rev?*%
%TF.SameCoordinates,Original*%
%TF.FileFunction,Legend,Top*%
%TF.FilePolarity,Positive*%
%FSLAX46Y46*%
G04 Gerber Fmt 4.6, Leading zero omitted, Abs format (unit mm)*
G04 Created by KiCad (PCBNEW 5.1.12-84ad8e8a86~92~ubuntu20.04.1) date 2021-11-29 16:52:28*
%MOMM*%
%LPD*%
G01*
G04 APERTURE LIST*
%ADD10C,0.300000*%
%ADD11C,0.500000*%
%ADD12C,0.120000*%
%ADD13C,0.150000*%
G04 APERTURE END LIST*
D10*
X136741904Y-86794761D02*
X136741904Y-88223333D01*
X136646666Y-88509047D01*
X136456190Y-88699523D01*
X136170476Y-88794761D01*
X135980000Y-88794761D01*
X138646666Y-88794761D02*
X137694285Y-88794761D01*
X137694285Y-86794761D01*
X140456190Y-88604285D02*
X140360952Y-88699523D01*
X140075238Y-88794761D01*
X139884761Y-88794761D01*
X139599047Y-88699523D01*
X139408571Y-88509047D01*
X139313333Y-88318571D01*
X139218095Y-87937619D01*
X139218095Y-87651904D01*
X139313333Y-87270952D01*
X139408571Y-87080476D01*
X139599047Y-86890000D01*
X139884761Y-86794761D01*
X140075238Y-86794761D01*
X140360952Y-86890000D01*
X140456190Y-86985238D01*
X141884761Y-86794761D02*
X141884761Y-88223333D01*
X141789523Y-88509047D01*
X141599047Y-88699523D01*
X141313333Y-88794761D01*
X141122857Y-88794761D01*
X143789523Y-88794761D02*
X142837142Y-88794761D01*
X142837142Y-86794761D01*
X145599047Y-88604285D02*
X145503809Y-88699523D01*
X145218095Y-88794761D01*
X145027619Y-88794761D01*
X144741904Y-88699523D01*
X144551428Y-88509047D01*
X144456190Y-88318571D01*
X144360952Y-87937619D01*
X144360952Y-87651904D01*
X144456190Y-87270952D01*
X144551428Y-87080476D01*
X144741904Y-86890000D01*
X145027619Y-86794761D01*
X145218095Y-86794761D01*
X145503809Y-86890000D01*
X145599047Y-86985238D01*
X147027619Y-86794761D02*
X147027619Y-88223333D01*
X146932380Y-88509047D01*
X146741904Y-88699523D01*
X146456190Y-88794761D01*
X146265714Y-88794761D01*
X148932380Y-88794761D02*
X147980000Y-88794761D01*
X147980000Y-86794761D01*
X150741904Y-88604285D02*
X150646666Y-88699523D01*
X150360952Y-88794761D01*
X150170476Y-88794761D01*
X149884761Y-88699523D01*
X149694285Y-88509047D01*
X149599047Y-88318571D01*
X149503809Y-87937619D01*
X149503809Y-87651904D01*
X149599047Y-87270952D01*
X149694285Y-87080476D01*
X149884761Y-86890000D01*
X150170476Y-86794761D01*
X150360952Y-86794761D01*
X150646666Y-86890000D01*
X150741904Y-86985238D01*
X152170476Y-86794761D02*
X152170476Y-88223333D01*
X152075238Y-88509047D01*
X151884761Y-88699523D01*
X151599047Y-88794761D01*
X151408571Y-88794761D01*
X154075238Y-88794761D02*
X153122857Y-88794761D01*
X153122857Y-86794761D01*
X155884761Y-88604285D02*
X155789523Y-88699523D01*
X155503809Y-88794761D01*
X155313333Y-88794761D01*
X155027619Y-88699523D01*
X154837142Y-88509047D01*
X154741904Y-88318571D01*
X154646666Y-87937619D01*
X154646666Y-87651904D01*
X154741904Y-87270952D01*
X154837142Y-87080476D01*
X155027619Y-86890000D01*
X155313333Y-86794761D01*
X155503809Y-86794761D01*
X155789523Y-86890000D01*
X155884761Y-86985238D01*
D11*
X121000000Y-113000000D02*
G75*
G03*
X121000000Y-113000000I-13000000J0D01*
G01*
D12*
%TO.C,C22*%
X140319617Y-157928606D02*
X140742331Y-157621485D01*
X139455573Y-156739351D02*
X139878287Y-156432230D01*
%TO.C,C21*%
X133601232Y-148681541D02*
X134023946Y-148374420D01*
X132737188Y-147492286D02*
X133159902Y-147185165D01*
%TO.C,C20*%
X126882846Y-139434477D02*
X127305560Y-139127356D01*
X126018802Y-138245222D02*
X126441516Y-137938101D01*
%TO.C,C19*%
X129151605Y-120147269D02*
X129313068Y-119650338D01*
X127753552Y-119693014D02*
X127915015Y-119196083D01*
%TO.C,C18*%
X160716954Y-96145920D02*
X160555491Y-95648989D01*
X159318901Y-96600175D02*
X159157438Y-96103244D01*
%TO.C,C17*%
X149846378Y-99677985D02*
X149684915Y-99181054D01*
X148448325Y-100132240D02*
X148286862Y-99635309D01*
%TO.C,C16*%
X138975802Y-103210049D02*
X138814339Y-102713118D01*
X137577749Y-103664304D02*
X137416286Y-103167373D01*
%TO.C,C15*%
X121333662Y-95092257D02*
X120910948Y-94785136D01*
X120469618Y-96281512D02*
X120046904Y-95974391D01*
%TO.C,C14*%
X108261252Y-57655000D02*
X107738748Y-57655000D01*
X108261252Y-59125000D02*
X107738748Y-59125000D01*
%TO.C,C13*%
X108261252Y-69085000D02*
X107738748Y-69085000D01*
X108261252Y-70555000D02*
X107738748Y-70555000D01*
%TO.C,C12*%
X108261252Y-80515000D02*
X107738748Y-80515000D01*
X108261252Y-81985000D02*
X107738748Y-81985000D01*
%TO.C,C11*%
X95089052Y-94785136D02*
X94666338Y-95092257D01*
X95953096Y-95974391D02*
X95530382Y-96281512D01*
%TO.C,C10*%
X55444509Y-95648989D02*
X55283046Y-96145920D01*
X56842562Y-96103244D02*
X56681099Y-96600175D01*
%TO.C,C9*%
X66315085Y-99181054D02*
X66153622Y-99677985D01*
X67713138Y-99635309D02*
X67551675Y-100132240D01*
%TO.C,C8*%
X77185661Y-102713118D02*
X77024198Y-103210049D01*
X78583714Y-103167373D02*
X78422251Y-103664304D01*
%TO.C,C7*%
X86686932Y-119650338D02*
X86848395Y-120147269D01*
X88084985Y-119196083D02*
X88246448Y-119693014D01*
%TO.C,C6*%
X75257669Y-157621485D02*
X75680383Y-157928606D01*
X76121713Y-156432230D02*
X76544427Y-156739351D01*
%TO.C,C5*%
X81976054Y-148374420D02*
X82398768Y-148681541D01*
X82840098Y-147185165D02*
X83262812Y-147492286D01*
%TO.C,C4*%
X88694440Y-139127356D02*
X89117154Y-139434477D01*
X89558484Y-137938101D02*
X89981198Y-138245222D01*
%TO.C,C3*%
X107738748Y-135325000D02*
X108261252Y-135325000D01*
X107738748Y-133855000D02*
X108261252Y-133855000D01*
%TO.C,C2*%
X104855000Y-119551252D02*
X104855000Y-119028748D01*
X103385000Y-119551252D02*
X103385000Y-119028748D01*
%TO.C,C1*%
X104855000Y-106851252D02*
X104855000Y-106328748D01*
X103385000Y-106851252D02*
X103385000Y-106328748D01*
%TO.C,D1*%
X108680000Y-106590000D02*
G75*
G03*
X108680000Y-106590000I-750000J0D01*
G01*
X109930000Y-104090000D02*
X109180000Y-104090000D01*
X109930000Y-109090000D02*
X109930000Y-104090000D01*
X105930000Y-109090000D02*
X105930000Y-104090000D01*
%TO.C,D2*%
X108680000Y-119290000D02*
G75*
G03*
X108680000Y-119290000I-750000J0D01*
G01*
X109930000Y-116790000D02*
X109180000Y-116790000D01*
X109930000Y-121790000D02*
X109930000Y-116790000D01*
X105930000Y-121790000D02*
X105930000Y-116790000D01*
%TO.C,D3*%
X108750000Y-138400000D02*
G75*
G03*
X108750000Y-138400000I-750000J0D01*
G01*
X110500000Y-140400000D02*
X110500000Y-139650000D01*
X105500000Y-140400000D02*
X110500000Y-140400000D01*
X105500000Y-136400000D02*
X110500000Y-136400000D01*
%TO.C,D4*%
X87848357Y-141768644D02*
G75*
G03*
X87848357Y-141768644I-750000J0D01*
G01*
X87945329Y-144856141D02*
X88386168Y-144249378D01*
X83900244Y-141917215D02*
X87945329Y-144856141D01*
X86251385Y-138681147D02*
X90296470Y-141620073D01*
%TO.C,D5*%
X81129971Y-151015708D02*
G75*
G03*
X81129971Y-151015708I-750000J0D01*
G01*
X81226943Y-154103205D02*
X81667782Y-153496442D01*
X77181858Y-151164279D02*
X81226943Y-154103205D01*
X79532999Y-147928211D02*
X83578084Y-150867137D01*
%TO.C,D6*%
X74411586Y-160262772D02*
G75*
G03*
X74411586Y-160262772I-750000J0D01*
G01*
X74508558Y-163350269D02*
X74949397Y-162743506D01*
X70463473Y-160411343D02*
X74508558Y-163350269D01*
X72814614Y-157175275D02*
X76859699Y-160114201D01*
%TO.C,D7*%
X84593165Y-120849031D02*
G75*
G03*
X84593165Y-120849031I-750000J0D01*
G01*
X82713594Y-123844706D02*
X83426887Y-123612944D01*
X81168509Y-119089424D02*
X82713594Y-123844706D01*
X84972736Y-117853356D02*
X86517821Y-122608638D01*
%TO.C,D8*%
X74930431Y-102011356D02*
G75*
G03*
X74930431Y-102011356I-750000J0D01*
G01*
X71505775Y-103770963D02*
X72219068Y-104002726D01*
X73050860Y-99015681D02*
X71505775Y-103770963D01*
X76855087Y-100251749D02*
X75310002Y-105007031D01*
%TO.C,D9*%
X64059855Y-98479292D02*
G75*
G03*
X64059855Y-98479292I-750000J0D01*
G01*
X60635199Y-100238899D02*
X61348492Y-100470662D01*
X62180284Y-95483617D02*
X60635199Y-100238899D01*
X65984511Y-96719685D02*
X64439426Y-101474967D01*
%TO.C,D10*%
X53189279Y-94947228D02*
G75*
G03*
X53189279Y-94947228I-750000J0D01*
G01*
X49764623Y-96706835D02*
X50477916Y-96938598D01*
X51309708Y-91951553D02*
X49764623Y-96706835D01*
X55113935Y-93187621D02*
X53568850Y-97942903D01*
%TO.C,D11*%
X93820255Y-92450969D02*
G75*
G03*
X93820255Y-92450969I-750000J0D01*
G01*
X89872142Y-92302398D02*
X90312981Y-92909161D01*
X93917227Y-89363472D02*
X89872142Y-92302398D01*
X96268368Y-92599540D02*
X92223283Y-95538466D01*
%TO.C,D12*%
X108750000Y-77440000D02*
G75*
G03*
X108750000Y-77440000I-750000J0D01*
G01*
X105500000Y-75440000D02*
X105500000Y-76190000D01*
X110500000Y-75440000D02*
X105500000Y-75440000D01*
X110500000Y-79440000D02*
X105500000Y-79440000D01*
%TO.C,D13*%
X108750000Y-66010000D02*
G75*
G03*
X108750000Y-66010000I-750000J0D01*
G01*
X105500000Y-64010000D02*
X105500000Y-64760000D01*
X110500000Y-64010000D02*
X105500000Y-64010000D01*
X110500000Y-68010000D02*
X105500000Y-68010000D01*
%TO.C,D14*%
X108750000Y-54580000D02*
G75*
G03*
X108750000Y-54580000I-750000J0D01*
G01*
X105500000Y-52580000D02*
X105500000Y-53330000D01*
X110500000Y-52580000D02*
X105500000Y-52580000D01*
X110500000Y-56580000D02*
X105500000Y-56580000D01*
%TO.C,D15*%
X123679745Y-92450969D02*
G75*
G03*
X123679745Y-92450969I-750000J0D01*
G01*
X122082773Y-89363472D02*
X121641934Y-89970235D01*
X126127858Y-92302398D02*
X122082773Y-89363472D01*
X123776717Y-95538466D02*
X119731632Y-92599540D01*
%TO.C,D16*%
X142569569Y-102011356D02*
G75*
G03*
X142569569Y-102011356I-750000J0D01*
G01*
X142949140Y-99015681D02*
X142235847Y-99247443D01*
X144494225Y-103770963D02*
X142949140Y-99015681D01*
X140689998Y-105007031D02*
X139144913Y-100251749D01*
%TO.C,D17*%
X153440145Y-98479292D02*
G75*
G03*
X153440145Y-98479292I-750000J0D01*
G01*
X153819716Y-95483617D02*
X153106423Y-95715379D01*
X155364801Y-100238899D02*
X153819716Y-95483617D01*
X151560574Y-101474967D02*
X150015489Y-96719685D01*
%TO.C,D18*%
X164310721Y-94947228D02*
G75*
G03*
X164310721Y-94947228I-750000J0D01*
G01*
X164690292Y-91951553D02*
X163976999Y-92183315D01*
X166235377Y-96706835D02*
X164690292Y-91951553D01*
X162431150Y-97942903D02*
X160886065Y-93187621D01*
%TO.C,D19*%
X132906835Y-120849031D02*
G75*
G03*
X132906835Y-120849031I-750000J0D01*
G01*
X134831491Y-119089424D02*
X134118198Y-118857661D01*
X133286406Y-123844706D02*
X134831491Y-119089424D01*
X129482179Y-122608638D02*
X131027264Y-117853356D01*
%TO.C,D20*%
X129651643Y-141768644D02*
G75*
G03*
X129651643Y-141768644I-750000J0D01*
G01*
X132099756Y-141917215D02*
X131658917Y-141310452D01*
X128054671Y-144856141D02*
X132099756Y-141917215D01*
X125703530Y-141620073D02*
X129748615Y-138681147D01*
%TO.C,D21*%
X136370029Y-151015708D02*
G75*
G03*
X136370029Y-151015708I-750000J0D01*
G01*
X138818142Y-151164279D02*
X138377303Y-150557516D01*
X134773057Y-154103205D02*
X138818142Y-151164279D01*
X132421916Y-150867137D02*
X136467001Y-147928211D01*
%TO.C,D22*%
X143088414Y-160262772D02*
G75*
G03*
X143088414Y-160262772I-750000J0D01*
G01*
X145536527Y-160411343D02*
X145095688Y-159804580D01*
X141491442Y-163350269D02*
X145536527Y-160411343D01*
X139140301Y-160114201D02*
X143185386Y-157175275D01*
%TO.C,C22*%
D13*
X136321840Y-160088796D02*
X136311306Y-160155310D01*
X136223722Y-160277804D01*
X136146672Y-160333784D01*
X136003109Y-160379229D01*
X135870080Y-160358159D01*
X135775576Y-160309100D01*
X135625092Y-160182991D01*
X135541123Y-160067417D01*
X135467688Y-159885329D01*
X135450233Y-159780290D01*
X135471303Y-159647261D01*
X135558887Y-159524767D01*
X135635936Y-159468787D01*
X135779500Y-159423343D01*
X135846014Y-159433878D01*
X136154211Y-159209959D02*
X136164746Y-159143445D01*
X136213806Y-159048941D01*
X136406429Y-158908992D01*
X136511468Y-158891537D01*
X136577982Y-158902072D01*
X136672486Y-158951131D01*
X136728466Y-159028181D01*
X136773910Y-159171744D01*
X136647492Y-159969917D01*
X137148312Y-159606050D01*
X136924704Y-158650164D02*
X136935238Y-158583650D01*
X136984298Y-158489145D01*
X137176921Y-158349196D01*
X137281960Y-158331742D01*
X137348474Y-158342276D01*
X137442979Y-158391336D01*
X137498958Y-158468385D01*
X137544403Y-158611949D01*
X137417985Y-159410121D01*
X137918805Y-159046254D01*
%TO.C,C21*%
X130225840Y-150436796D02*
X130215306Y-150503310D01*
X130127722Y-150625804D01*
X130050672Y-150681784D01*
X129907109Y-150727229D01*
X129774080Y-150706159D01*
X129679576Y-150657100D01*
X129529092Y-150530991D01*
X129445123Y-150415417D01*
X129371688Y-150233329D01*
X129354233Y-150128290D01*
X129375303Y-149995261D01*
X129462887Y-149872767D01*
X129539936Y-149816787D01*
X129683500Y-149771343D01*
X129750014Y-149781878D01*
X130058211Y-149557959D02*
X130068746Y-149491445D01*
X130117806Y-149396941D01*
X130310429Y-149256992D01*
X130415468Y-149239537D01*
X130481982Y-149250072D01*
X130576486Y-149299131D01*
X130632466Y-149376181D01*
X130677910Y-149519744D01*
X130551492Y-150317917D01*
X131052312Y-149954050D01*
X131822805Y-149394254D02*
X131360509Y-149730132D01*
X131591657Y-149562193D02*
X131003872Y-148753176D01*
X131010792Y-148924729D01*
X130989722Y-149057758D01*
X130940663Y-149152262D01*
%TO.C,C20*%
X123113840Y-141800796D02*
X123103306Y-141867310D01*
X123015722Y-141989804D01*
X122938672Y-142045784D01*
X122795109Y-142091229D01*
X122662080Y-142070159D01*
X122567576Y-142021100D01*
X122417092Y-141894991D01*
X122333123Y-141779417D01*
X122259688Y-141597329D01*
X122242233Y-141492290D01*
X122263303Y-141359261D01*
X122350887Y-141236767D01*
X122427936Y-141180787D01*
X122571500Y-141135343D01*
X122638014Y-141145878D01*
X122946211Y-140921959D02*
X122956746Y-140855445D01*
X123005806Y-140760941D01*
X123198429Y-140620992D01*
X123303468Y-140603537D01*
X123369982Y-140614072D01*
X123464486Y-140663131D01*
X123520466Y-140740181D01*
X123565910Y-140883744D01*
X123439492Y-141681917D01*
X123940312Y-141318050D01*
X123853347Y-140145166D02*
X123930396Y-140089186D01*
X124035435Y-140071731D01*
X124101950Y-140082266D01*
X124196454Y-140131326D01*
X124346938Y-140257434D01*
X124486887Y-140450057D01*
X124560321Y-140632146D01*
X124577776Y-140737185D01*
X124567241Y-140803699D01*
X124518182Y-140898203D01*
X124441132Y-140954183D01*
X124336093Y-140971638D01*
X124269579Y-140961103D01*
X124175075Y-140912043D01*
X124024591Y-140785935D01*
X123884642Y-140593312D01*
X123811208Y-140411223D01*
X123793753Y-140306184D01*
X123804288Y-140239670D01*
X123853347Y-140145166D01*
%TO.C,C19*%
X127076544Y-119874283D02*
X127107117Y-119934287D01*
X127108260Y-120084867D01*
X127078830Y-120175444D01*
X126989396Y-120296594D01*
X126869389Y-120357741D01*
X126764097Y-120373599D01*
X126568229Y-120360027D01*
X126432363Y-120315882D01*
X126265925Y-120211733D01*
X126190063Y-120137014D01*
X126128917Y-120017007D01*
X126127773Y-119866427D01*
X126157204Y-119775850D01*
X126246637Y-119654700D01*
X126306641Y-119624127D01*
X127461422Y-118997945D02*
X127284841Y-119541406D01*
X127373132Y-119269676D02*
X126422075Y-118960659D01*
X126528510Y-119095381D01*
X126589657Y-119215388D01*
X126605515Y-119320680D01*
X127608573Y-118545061D02*
X127667434Y-118363908D01*
X127651576Y-118258616D01*
X127621002Y-118198612D01*
X127514567Y-118063890D01*
X127348129Y-117959741D01*
X126985821Y-117842021D01*
X126880530Y-117857879D01*
X126820526Y-117888452D01*
X126745807Y-117964314D01*
X126686947Y-118145467D01*
X126702805Y-118250759D01*
X126733379Y-118310763D01*
X126809240Y-118385481D01*
X127035682Y-118459057D01*
X127140974Y-118443199D01*
X127200978Y-118412625D01*
X127275696Y-118336764D01*
X127334557Y-118155610D01*
X127318699Y-118050318D01*
X127288125Y-117990315D01*
X127212264Y-117915596D01*
%TO.C,C18*%
X160477683Y-98976969D02*
X160417679Y-98946396D01*
X160328245Y-98825246D01*
X160298815Y-98734669D01*
X160299958Y-98584089D01*
X160361105Y-98464082D01*
X160436967Y-98389363D01*
X160603405Y-98285214D01*
X160739270Y-98241069D01*
X160935139Y-98227497D01*
X161040431Y-98243355D01*
X161160438Y-98304502D01*
X161249872Y-98425652D01*
X161279302Y-98516229D01*
X161278159Y-98666809D01*
X161247586Y-98726813D01*
X160681408Y-99912168D02*
X160504827Y-99368707D01*
X160593117Y-99640437D02*
X161544174Y-99331420D01*
X161378878Y-99284989D01*
X161258871Y-99223842D01*
X161184153Y-99147980D01*
X161401450Y-100279047D02*
X161417308Y-100173755D01*
X161447881Y-100113752D01*
X161523743Y-100039033D01*
X161569031Y-100024318D01*
X161674323Y-100040176D01*
X161734327Y-100070750D01*
X161809045Y-100146611D01*
X161867906Y-100327765D01*
X161852048Y-100433057D01*
X161821474Y-100493060D01*
X161745613Y-100567779D01*
X161700324Y-100582494D01*
X161595032Y-100566636D01*
X161535029Y-100536063D01*
X161460310Y-100460201D01*
X161401450Y-100279047D01*
X161326731Y-100203186D01*
X161266728Y-100172612D01*
X161161436Y-100156754D01*
X160980282Y-100215614D01*
X160904420Y-100290333D01*
X160873847Y-100350336D01*
X160857989Y-100455628D01*
X160916849Y-100636782D01*
X160991568Y-100712644D01*
X161051571Y-100743217D01*
X161156863Y-100759075D01*
X161338017Y-100700215D01*
X161413879Y-100625496D01*
X161444452Y-100565493D01*
X161460310Y-100460201D01*
%TO.C,C17*%
X149809683Y-102532969D02*
X149749679Y-102502396D01*
X149660245Y-102381246D01*
X149630815Y-102290669D01*
X149631958Y-102140089D01*
X149693105Y-102020082D01*
X149768967Y-101945363D01*
X149935405Y-101841214D01*
X150071270Y-101797069D01*
X150267139Y-101783497D01*
X150372431Y-101799355D01*
X150492438Y-101860502D01*
X150581872Y-101981652D01*
X150611302Y-102072229D01*
X150610159Y-102222809D01*
X150579586Y-102282813D01*
X150013408Y-103468168D02*
X149836827Y-102924707D01*
X149925117Y-103196437D02*
X150876174Y-102887420D01*
X150710878Y-102840989D01*
X150590871Y-102779842D01*
X150516153Y-102703980D01*
X151067470Y-103476169D02*
X151273481Y-104110207D01*
X150189989Y-104011628D01*
%TO.C,C16*%
X138633683Y-106088969D02*
X138573679Y-106058396D01*
X138484245Y-105937246D01*
X138454815Y-105846669D01*
X138455958Y-105696089D01*
X138517105Y-105576082D01*
X138592967Y-105501363D01*
X138759405Y-105397214D01*
X138895270Y-105353069D01*
X139091139Y-105339497D01*
X139196431Y-105355355D01*
X139316438Y-105416502D01*
X139405872Y-105537652D01*
X139435302Y-105628229D01*
X139434159Y-105778809D01*
X139403586Y-105838813D01*
X138837408Y-107024168D02*
X138660827Y-106480707D01*
X138749117Y-106752437D02*
X139700174Y-106443420D01*
X139534878Y-106396989D01*
X139414871Y-106335842D01*
X139340153Y-106259980D01*
X140053336Y-107530342D02*
X139994476Y-107349188D01*
X139919757Y-107273327D01*
X139859754Y-107242753D01*
X139694458Y-107196322D01*
X139498589Y-107209894D01*
X139136282Y-107327614D01*
X139060420Y-107402333D01*
X139029847Y-107462336D01*
X139013989Y-107567628D01*
X139072849Y-107748782D01*
X139147568Y-107824644D01*
X139207571Y-107855217D01*
X139312863Y-107871075D01*
X139539305Y-107797500D01*
X139615167Y-107722781D01*
X139645740Y-107662778D01*
X139661599Y-107557486D01*
X139602738Y-107376332D01*
X139528020Y-107300470D01*
X139468016Y-107269897D01*
X139362724Y-107254039D01*
%TO.C,C15*%
X123074994Y-97712672D02*
X123008479Y-97723207D01*
X122864916Y-97677762D01*
X122787867Y-97621783D01*
X122700282Y-97499289D01*
X122679213Y-97366260D01*
X122696668Y-97261221D01*
X122770102Y-97079133D01*
X122854072Y-96963559D01*
X123004555Y-96837450D01*
X123099059Y-96788391D01*
X123232088Y-96767321D01*
X123375652Y-96812766D01*
X123452701Y-96868745D01*
X123540285Y-96991239D01*
X123550820Y-97057754D01*
X123789507Y-98349517D02*
X123327211Y-98013640D01*
X123558359Y-98181578D02*
X124146144Y-97372561D01*
X123985126Y-97432156D01*
X123852097Y-97453225D01*
X123747058Y-97435770D01*
X125109260Y-98072306D02*
X124724013Y-97792408D01*
X124405591Y-98149664D01*
X124472106Y-98139129D01*
X124577145Y-98156584D01*
X124769768Y-98296533D01*
X124818827Y-98391037D01*
X124829362Y-98457552D01*
X124811907Y-98562591D01*
X124671958Y-98755214D01*
X124577454Y-98804273D01*
X124510940Y-98814808D01*
X124405901Y-98797353D01*
X124213277Y-98657404D01*
X124164218Y-98562900D01*
X124153683Y-98496386D01*
%TO.C,C14*%
X111097142Y-58687142D02*
X111049523Y-58734761D01*
X110906666Y-58782380D01*
X110811428Y-58782380D01*
X110668571Y-58734761D01*
X110573333Y-58639523D01*
X110525714Y-58544285D01*
X110478095Y-58353809D01*
X110478095Y-58210952D01*
X110525714Y-58020476D01*
X110573333Y-57925238D01*
X110668571Y-57830000D01*
X110811428Y-57782380D01*
X110906666Y-57782380D01*
X111049523Y-57830000D01*
X111097142Y-57877619D01*
X112049523Y-58782380D02*
X111478095Y-58782380D01*
X111763809Y-58782380D02*
X111763809Y-57782380D01*
X111668571Y-57925238D01*
X111573333Y-58020476D01*
X111478095Y-58068095D01*
X112906666Y-58115714D02*
X112906666Y-58782380D01*
X112668571Y-57734761D02*
X112430476Y-58449047D01*
X113049523Y-58449047D01*
%TO.C,C13*%
X111097142Y-70371142D02*
X111049523Y-70418761D01*
X110906666Y-70466380D01*
X110811428Y-70466380D01*
X110668571Y-70418761D01*
X110573333Y-70323523D01*
X110525714Y-70228285D01*
X110478095Y-70037809D01*
X110478095Y-69894952D01*
X110525714Y-69704476D01*
X110573333Y-69609238D01*
X110668571Y-69514000D01*
X110811428Y-69466380D01*
X110906666Y-69466380D01*
X111049523Y-69514000D01*
X111097142Y-69561619D01*
X112049523Y-70466380D02*
X111478095Y-70466380D01*
X111763809Y-70466380D02*
X111763809Y-69466380D01*
X111668571Y-69609238D01*
X111573333Y-69704476D01*
X111478095Y-69752095D01*
X112382857Y-69466380D02*
X113001904Y-69466380D01*
X112668571Y-69847333D01*
X112811428Y-69847333D01*
X112906666Y-69894952D01*
X112954285Y-69942571D01*
X113001904Y-70037809D01*
X113001904Y-70275904D01*
X112954285Y-70371142D01*
X112906666Y-70418761D01*
X112811428Y-70466380D01*
X112525714Y-70466380D01*
X112430476Y-70418761D01*
X112382857Y-70371142D01*
%TO.C,C12*%
X111097142Y-81547142D02*
X111049523Y-81594761D01*
X110906666Y-81642380D01*
X110811428Y-81642380D01*
X110668571Y-81594761D01*
X110573333Y-81499523D01*
X110525714Y-81404285D01*
X110478095Y-81213809D01*
X110478095Y-81070952D01*
X110525714Y-80880476D01*
X110573333Y-80785238D01*
X110668571Y-80690000D01*
X110811428Y-80642380D01*
X110906666Y-80642380D01*
X111049523Y-80690000D01*
X111097142Y-80737619D01*
X112049523Y-81642380D02*
X111478095Y-81642380D01*
X111763809Y-81642380D02*
X111763809Y-80642380D01*
X111668571Y-80785238D01*
X111573333Y-80880476D01*
X111478095Y-80928095D01*
X112430476Y-80737619D02*
X112478095Y-80690000D01*
X112573333Y-80642380D01*
X112811428Y-80642380D01*
X112906666Y-80690000D01*
X112954285Y-80737619D01*
X113001904Y-80832857D01*
X113001904Y-80928095D01*
X112954285Y-81070952D01*
X112382857Y-81642380D01*
X113001904Y-81642380D01*
%TO.C,C11*%
X95987036Y-97559269D02*
X95976502Y-97625783D01*
X95888918Y-97748277D01*
X95811868Y-97804257D01*
X95668305Y-97849702D01*
X95535276Y-97828632D01*
X95440772Y-97779573D01*
X95290288Y-97653464D01*
X95206319Y-97537890D01*
X95132884Y-97355802D01*
X95115429Y-97250763D01*
X95136499Y-97117734D01*
X95224083Y-96995240D01*
X95301132Y-96939260D01*
X95444696Y-96893816D01*
X95511210Y-96904351D01*
X96813508Y-97076523D02*
X96351213Y-97412400D01*
X96582361Y-97244461D02*
X95994575Y-96435444D01*
X96001495Y-96606998D01*
X95980426Y-96740027D01*
X95931366Y-96834531D01*
X97584001Y-96516727D02*
X97121705Y-96852605D01*
X97352853Y-96684666D02*
X96765068Y-95875649D01*
X96771988Y-96047202D01*
X96750918Y-96180231D01*
X96701859Y-96274735D01*
%TO.C,C10*%
X57525009Y-93087756D02*
X57555582Y-93147760D01*
X57556725Y-93298340D01*
X57527295Y-93388917D01*
X57437861Y-93510067D01*
X57317854Y-93571214D01*
X57212562Y-93587072D01*
X57016694Y-93573500D01*
X56880828Y-93529355D01*
X56714390Y-93425206D01*
X56638528Y-93350487D01*
X56577382Y-93230480D01*
X56576238Y-93079900D01*
X56605669Y-92989323D01*
X56695102Y-92868173D01*
X56755106Y-92837600D01*
X57909887Y-92211418D02*
X57733306Y-92754879D01*
X57821597Y-92483149D02*
X56870540Y-92174132D01*
X56976975Y-92308854D01*
X57038122Y-92428861D01*
X57053980Y-92534153D01*
X57150127Y-91313652D02*
X57179557Y-91223075D01*
X57254276Y-91147213D01*
X57314279Y-91116640D01*
X57419571Y-91100782D01*
X57615440Y-91114354D01*
X57841882Y-91187929D01*
X58008321Y-91292078D01*
X58084182Y-91366797D01*
X58114756Y-91426800D01*
X58130614Y-91532092D01*
X58101184Y-91622669D01*
X58026465Y-91698531D01*
X57966462Y-91729104D01*
X57861170Y-91744962D01*
X57665301Y-91731390D01*
X57438859Y-91657815D01*
X57272420Y-91553666D01*
X57196559Y-91478947D01*
X57165985Y-91418944D01*
X57150127Y-91313652D01*
%TO.C,C9*%
X68340160Y-96698872D02*
X68370733Y-96758876D01*
X68371876Y-96909456D01*
X68342446Y-97000033D01*
X68253012Y-97121183D01*
X68133005Y-97182329D01*
X68027713Y-97198188D01*
X67831845Y-97184616D01*
X67695979Y-97140470D01*
X67529541Y-97036322D01*
X67453679Y-96961603D01*
X67392533Y-96841596D01*
X67391389Y-96691016D01*
X67420820Y-96600439D01*
X67510253Y-96479289D01*
X67570257Y-96448716D01*
X68577887Y-96275418D02*
X68636748Y-96094265D01*
X68620890Y-95988973D01*
X68590316Y-95928969D01*
X68483881Y-95794247D01*
X68317443Y-95690098D01*
X67955136Y-95572378D01*
X67849844Y-95588236D01*
X67789840Y-95618809D01*
X67715122Y-95694671D01*
X67656261Y-95875824D01*
X67672119Y-95981116D01*
X67702693Y-96041120D01*
X67778554Y-96115838D01*
X68004996Y-96189414D01*
X68110288Y-96173556D01*
X68170292Y-96142982D01*
X68245010Y-96067121D01*
X68303871Y-95885967D01*
X68288013Y-95780675D01*
X68257439Y-95720672D01*
X68181578Y-95645953D01*
%TO.C,C8*%
X79008159Y-100254872D02*
X79038732Y-100314876D01*
X79039875Y-100465456D01*
X79010445Y-100556033D01*
X78921011Y-100677183D01*
X78801004Y-100738329D01*
X78695712Y-100754188D01*
X78499844Y-100740616D01*
X78363978Y-100696470D01*
X78197540Y-100592322D01*
X78121678Y-100517603D01*
X78060532Y-100397596D01*
X78059388Y-100247016D01*
X78088819Y-100156439D01*
X78178252Y-100035289D01*
X78238256Y-100004716D01*
X78731856Y-99564260D02*
X78657137Y-99640122D01*
X78597134Y-99670695D01*
X78491842Y-99686554D01*
X78446553Y-99671838D01*
X78370692Y-99597120D01*
X78340118Y-99537116D01*
X78324260Y-99431824D01*
X78383121Y-99250671D01*
X78457839Y-99174809D01*
X78517843Y-99144236D01*
X78623135Y-99128378D01*
X78668423Y-99143093D01*
X78744285Y-99217811D01*
X78774858Y-99277815D01*
X78790716Y-99383107D01*
X78731856Y-99564260D01*
X78747714Y-99669552D01*
X78778287Y-99729556D01*
X78854149Y-99804274D01*
X79035303Y-99863135D01*
X79140595Y-99847276D01*
X79200598Y-99816703D01*
X79275317Y-99740841D01*
X79334177Y-99559688D01*
X79318319Y-99454396D01*
X79287746Y-99394392D01*
X79211884Y-99319674D01*
X79030730Y-99260813D01*
X78925438Y-99276672D01*
X78865435Y-99307245D01*
X78790716Y-99383107D01*
%TO.C,C7*%
X88673299Y-119104380D02*
X88613295Y-119073807D01*
X88523861Y-118952657D01*
X88494431Y-118862080D01*
X88495574Y-118711500D01*
X88556721Y-118591493D01*
X88632583Y-118516774D01*
X88799021Y-118412625D01*
X88934886Y-118368480D01*
X89130755Y-118354908D01*
X89236047Y-118370766D01*
X89356054Y-118431913D01*
X89445488Y-118553063D01*
X89474918Y-118643640D01*
X89473775Y-118794220D01*
X89443202Y-118854224D01*
X89636784Y-119141812D02*
X89842795Y-119775850D01*
X88759303Y-119677271D01*
%TO.C,C6*%
X72787241Y-155548970D02*
X72720727Y-155559505D01*
X72577163Y-155514060D01*
X72500114Y-155458081D01*
X72412530Y-155335587D01*
X72391460Y-155202558D01*
X72408915Y-155097519D01*
X72482349Y-154915431D01*
X72566319Y-154799857D01*
X72716802Y-154673748D01*
X72811307Y-154624689D01*
X72944335Y-154603619D01*
X73087899Y-154649064D01*
X73164948Y-154705043D01*
X73252532Y-154827537D01*
X73263067Y-154894051D01*
X74012490Y-155320818D02*
X73858391Y-155208859D01*
X73753352Y-155191404D01*
X73686838Y-155201939D01*
X73525819Y-155261533D01*
X73375336Y-155387642D01*
X73151418Y-155695839D01*
X73133963Y-155800878D01*
X73144497Y-155867392D01*
X73193557Y-155961896D01*
X73347655Y-156073856D01*
X73452694Y-156091310D01*
X73519209Y-156080776D01*
X73613713Y-156031716D01*
X73753662Y-155839093D01*
X73771117Y-155734054D01*
X73760582Y-155667540D01*
X73711522Y-155573036D01*
X73557424Y-155461076D01*
X73452385Y-155443621D01*
X73385871Y-155454156D01*
X73291366Y-155503216D01*
%TO.C,C5*%
X79391239Y-146404970D02*
X79324725Y-146415505D01*
X79181161Y-146370060D01*
X79104112Y-146314081D01*
X79016528Y-146191587D01*
X78995458Y-146058558D01*
X79012913Y-145953519D01*
X79086347Y-145771431D01*
X79170317Y-145655857D01*
X79320800Y-145529748D01*
X79415305Y-145480689D01*
X79548333Y-145459619D01*
X79691897Y-145505064D01*
X79768946Y-145561043D01*
X79856530Y-145683537D01*
X79867065Y-145750051D01*
X80655012Y-146204808D02*
X80269766Y-145924910D01*
X79951344Y-146282167D01*
X80017858Y-146271632D01*
X80122897Y-146289087D01*
X80315520Y-146429036D01*
X80364580Y-146523540D01*
X80375115Y-146590054D01*
X80357660Y-146695093D01*
X80217711Y-146887716D01*
X80123207Y-146936776D01*
X80056692Y-146947310D01*
X79951653Y-146929856D01*
X79759030Y-146789907D01*
X79709971Y-146695403D01*
X79699436Y-146628888D01*
%TO.C,C4*%
X86503240Y-136752970D02*
X86436726Y-136763505D01*
X86293162Y-136718060D01*
X86216113Y-136662081D01*
X86128529Y-136539587D01*
X86107459Y-136406558D01*
X86124914Y-136301519D01*
X86198348Y-136119431D01*
X86282318Y-136003857D01*
X86432801Y-135877748D01*
X86527306Y-135828689D01*
X86660334Y-135807619D01*
X86803898Y-135853064D01*
X86880947Y-135909043D01*
X86968531Y-136031537D01*
X86979066Y-136098051D01*
X87532560Y-136794490D02*
X87140704Y-137333835D01*
X87563856Y-136346345D02*
X86951386Y-136784265D01*
X87452206Y-137148132D01*
%TO.C,C3*%
X107833333Y-133267142D02*
X107785714Y-133314761D01*
X107642857Y-133362380D01*
X107547619Y-133362380D01*
X107404761Y-133314761D01*
X107309523Y-133219523D01*
X107261904Y-133124285D01*
X107214285Y-132933809D01*
X107214285Y-132790952D01*
X107261904Y-132600476D01*
X107309523Y-132505238D01*
X107404761Y-132410000D01*
X107547619Y-132362380D01*
X107642857Y-132362380D01*
X107785714Y-132410000D01*
X107833333Y-132457619D01*
X108166666Y-132362380D02*
X108785714Y-132362380D01*
X108452380Y-132743333D01*
X108595238Y-132743333D01*
X108690476Y-132790952D01*
X108738095Y-132838571D01*
X108785714Y-132933809D01*
X108785714Y-133171904D01*
X108738095Y-133267142D01*
X108690476Y-133314761D01*
X108595238Y-133362380D01*
X108309523Y-133362380D01*
X108214285Y-133314761D01*
X108166666Y-133267142D01*
%TO.C,C2*%
X102797142Y-119456666D02*
X102844761Y-119504285D01*
X102892380Y-119647142D01*
X102892380Y-119742380D01*
X102844761Y-119885238D01*
X102749523Y-119980476D01*
X102654285Y-120028095D01*
X102463809Y-120075714D01*
X102320952Y-120075714D01*
X102130476Y-120028095D01*
X102035238Y-119980476D01*
X101940000Y-119885238D01*
X101892380Y-119742380D01*
X101892380Y-119647142D01*
X101940000Y-119504285D01*
X101987619Y-119456666D01*
X101987619Y-119075714D02*
X101940000Y-119028095D01*
X101892380Y-118932857D01*
X101892380Y-118694761D01*
X101940000Y-118599523D01*
X101987619Y-118551904D01*
X102082857Y-118504285D01*
X102178095Y-118504285D01*
X102320952Y-118551904D01*
X102892380Y-119123333D01*
X102892380Y-118504285D01*
%TO.C,C1*%
X102572142Y-106756666D02*
X102619761Y-106804285D01*
X102667380Y-106947142D01*
X102667380Y-107042380D01*
X102619761Y-107185238D01*
X102524523Y-107280476D01*
X102429285Y-107328095D01*
X102238809Y-107375714D01*
X102095952Y-107375714D01*
X101905476Y-107328095D01*
X101810238Y-107280476D01*
X101715000Y-107185238D01*
X101667380Y-107042380D01*
X101667380Y-106947142D01*
X101715000Y-106804285D01*
X101762619Y-106756666D01*
X102667380Y-105804285D02*
X102667380Y-106375714D01*
X102667380Y-106090000D02*
X101667380Y-106090000D01*
X101810238Y-106185238D01*
X101905476Y-106280476D01*
X101953095Y-106375714D01*
%TO.C,D1*%
X111557380Y-107328095D02*
X110557380Y-107328095D01*
X110557380Y-107090000D01*
X110605000Y-106947142D01*
X110700238Y-106851904D01*
X110795476Y-106804285D01*
X110985952Y-106756666D01*
X111128809Y-106756666D01*
X111319285Y-106804285D01*
X111414523Y-106851904D01*
X111509761Y-106947142D01*
X111557380Y-107090000D01*
X111557380Y-107328095D01*
X111557380Y-105804285D02*
X111557380Y-106375714D01*
X111557380Y-106090000D02*
X110557380Y-106090000D01*
X110700238Y-106185238D01*
X110795476Y-106280476D01*
X110843095Y-106375714D01*
X107132380Y-109554285D02*
X107132380Y-110125714D01*
X107132380Y-109840000D02*
X106132380Y-109840000D01*
X106275238Y-109935238D01*
X106370476Y-110030476D01*
X106418095Y-110125714D01*
%TO.C,D2*%
X111684380Y-120028095D02*
X110684380Y-120028095D01*
X110684380Y-119790000D01*
X110732000Y-119647142D01*
X110827238Y-119551904D01*
X110922476Y-119504285D01*
X111112952Y-119456666D01*
X111255809Y-119456666D01*
X111446285Y-119504285D01*
X111541523Y-119551904D01*
X111636761Y-119647142D01*
X111684380Y-119790000D01*
X111684380Y-120028095D01*
X110779619Y-119075714D02*
X110732000Y-119028095D01*
X110684380Y-118932857D01*
X110684380Y-118694761D01*
X110732000Y-118599523D01*
X110779619Y-118551904D01*
X110874857Y-118504285D01*
X110970095Y-118504285D01*
X111112952Y-118551904D01*
X111684380Y-119123333D01*
X111684380Y-118504285D01*
X107132380Y-122254285D02*
X107132380Y-122825714D01*
X107132380Y-122540000D02*
X106132380Y-122540000D01*
X106275238Y-122635238D01*
X106370476Y-122730476D01*
X106418095Y-122825714D01*
%TO.C,D3*%
X107261904Y-142602380D02*
X107261904Y-141602380D01*
X107500000Y-141602380D01*
X107642857Y-141650000D01*
X107738095Y-141745238D01*
X107785714Y-141840476D01*
X107833333Y-142030952D01*
X107833333Y-142173809D01*
X107785714Y-142364285D01*
X107738095Y-142459523D01*
X107642857Y-142554761D01*
X107500000Y-142602380D01*
X107261904Y-142602380D01*
X108166666Y-141602380D02*
X108785714Y-141602380D01*
X108452380Y-141983333D01*
X108595238Y-141983333D01*
X108690476Y-142030952D01*
X108738095Y-142078571D01*
X108785714Y-142173809D01*
X108785714Y-142411904D01*
X108738095Y-142507142D01*
X108690476Y-142554761D01*
X108595238Y-142602380D01*
X108309523Y-142602380D01*
X108214285Y-142554761D01*
X108166666Y-142507142D01*
X105035714Y-137602380D02*
X104464285Y-137602380D01*
X104750000Y-137602380D02*
X104750000Y-136602380D01*
X104654761Y-136745238D01*
X104559523Y-136840476D01*
X104464285Y-136888095D01*
%TO.C,D4*%
X83952965Y-144622141D02*
X84540750Y-143813124D01*
X84733373Y-143953073D01*
X84820957Y-144075567D01*
X84842027Y-144208595D01*
X84824572Y-144313634D01*
X84751138Y-144495723D01*
X84667168Y-144611297D01*
X84516685Y-144737405D01*
X84422181Y-144786465D01*
X84289152Y-144807534D01*
X84145588Y-144762090D01*
X83952965Y-144622141D01*
X85500560Y-144922489D02*
X85108704Y-145461834D01*
X85531856Y-144474344D02*
X84919386Y-144912264D01*
X85420206Y-145276131D01*
X85169027Y-139380993D02*
X84706732Y-139045116D01*
X84937880Y-139213054D02*
X85525665Y-138404037D01*
X85364646Y-138463632D01*
X85231618Y-138484701D01*
X85126579Y-138467246D01*
%TO.C,D5*%
X77348965Y-153766142D02*
X77936750Y-152957125D01*
X78129373Y-153097074D01*
X78216957Y-153219568D01*
X78238027Y-153352596D01*
X78220572Y-153457635D01*
X78147138Y-153639724D01*
X78063168Y-153755298D01*
X77912685Y-153881406D01*
X77818181Y-153930466D01*
X77685152Y-153951535D01*
X77541588Y-153906091D01*
X77348965Y-153766142D01*
X79131013Y-153824808D02*
X78745767Y-153544910D01*
X78427345Y-153902167D01*
X78493859Y-153891632D01*
X78598898Y-153909087D01*
X78791521Y-154049036D01*
X78840581Y-154143540D01*
X78851116Y-154210054D01*
X78833661Y-154315093D01*
X78693712Y-154507716D01*
X78599208Y-154556776D01*
X78532693Y-154567310D01*
X78427654Y-154549856D01*
X78235031Y-154409907D01*
X78185972Y-154315403D01*
X78175437Y-154248888D01*
X78450641Y-148628057D02*
X77988346Y-148292180D01*
X78219494Y-148460118D02*
X78807279Y-147651101D01*
X78646260Y-147710696D01*
X78513232Y-147731765D01*
X78408193Y-147714310D01*
%TO.C,D6*%
X70744965Y-162910142D02*
X71332750Y-162101125D01*
X71525373Y-162241074D01*
X71612957Y-162363568D01*
X71634027Y-162496596D01*
X71616572Y-162601635D01*
X71543138Y-162783724D01*
X71459168Y-162899298D01*
X71308685Y-163025406D01*
X71214181Y-163074466D01*
X71081152Y-163095535D01*
X70937588Y-163050091D01*
X70744965Y-162910142D01*
X72488489Y-162940818D02*
X72334390Y-162828859D01*
X72229351Y-162811404D01*
X72162837Y-162821939D01*
X72001818Y-162881533D01*
X71851335Y-163007642D01*
X71627417Y-163315839D01*
X71609962Y-163420878D01*
X71620496Y-163487392D01*
X71669556Y-163581896D01*
X71823654Y-163693856D01*
X71928693Y-163711310D01*
X71995208Y-163700776D01*
X72089712Y-163651716D01*
X72229661Y-163459093D01*
X72247116Y-163354054D01*
X72236581Y-163287540D01*
X72187521Y-163193036D01*
X72033423Y-163081076D01*
X71928384Y-163063621D01*
X71861870Y-163074156D01*
X71767365Y-163123216D01*
X71732256Y-157875121D02*
X71269961Y-157539244D01*
X71501109Y-157707182D02*
X72088894Y-156898165D01*
X71927875Y-156957760D01*
X71794847Y-156978829D01*
X71689808Y-156961374D01*
%TO.C,D7*%
X79585676Y-121775823D02*
X80536732Y-121466806D01*
X80610308Y-121693248D01*
X80609165Y-121843828D01*
X80548018Y-121963835D01*
X80472156Y-122038554D01*
X80305718Y-122142702D01*
X80169852Y-122186848D01*
X79973984Y-122200420D01*
X79868692Y-122184561D01*
X79748685Y-122123415D01*
X79659251Y-122002265D01*
X79585676Y-121775823D01*
X80816319Y-122327285D02*
X81022330Y-122961323D01*
X79938838Y-122862744D01*
X83685730Y-117783349D02*
X83509149Y-117239888D01*
X83597440Y-117511619D02*
X84548496Y-117202602D01*
X84383201Y-117156170D01*
X84263194Y-117095024D01*
X84188475Y-117019162D01*
%TO.C,D8*%
X71302155Y-101843763D02*
X70351099Y-101534746D01*
X70424674Y-101308304D01*
X70514108Y-101187154D01*
X70634115Y-101126007D01*
X70739407Y-101110149D01*
X70935276Y-101123721D01*
X71071141Y-101167866D01*
X71237579Y-101272015D01*
X71313441Y-101346734D01*
X71374588Y-101466741D01*
X71375731Y-101617321D01*
X71302155Y-101843763D01*
X71111857Y-100580260D02*
X71037138Y-100656122D01*
X70977135Y-100686695D01*
X70871843Y-100702554D01*
X70826554Y-100687838D01*
X70750693Y-100613120D01*
X70720119Y-100553116D01*
X70704261Y-100447824D01*
X70763122Y-100266671D01*
X70837840Y-100190809D01*
X70897844Y-100160236D01*
X71003136Y-100144378D01*
X71048424Y-100159093D01*
X71124286Y-100233811D01*
X71154859Y-100293815D01*
X71170717Y-100399107D01*
X71111857Y-100580260D01*
X71127715Y-100685552D01*
X71158288Y-100745556D01*
X71234150Y-100820274D01*
X71415304Y-100879135D01*
X71520596Y-100863276D01*
X71580599Y-100832703D01*
X71655318Y-100756841D01*
X71714178Y-100575688D01*
X71698320Y-100470396D01*
X71667747Y-100410392D01*
X71591885Y-100335674D01*
X71410731Y-100276813D01*
X71305439Y-100292672D01*
X71245436Y-100323245D01*
X71170717Y-100399107D01*
X76892087Y-99174756D02*
X76715506Y-99718217D01*
X76803796Y-99446487D02*
X75852740Y-99137470D01*
X75959175Y-99272192D01*
X76020321Y-99392199D01*
X76036180Y-99497491D01*
%TO.C,D9*%
X60634155Y-98287763D02*
X59683099Y-97978746D01*
X59756674Y-97752304D01*
X59846108Y-97631154D01*
X59966115Y-97570007D01*
X60071407Y-97554149D01*
X60267276Y-97567721D01*
X60403141Y-97611866D01*
X60569579Y-97716015D01*
X60645441Y-97790734D01*
X60706588Y-97910741D01*
X60707731Y-98061321D01*
X60634155Y-98287763D01*
X60957887Y-97291418D02*
X61016748Y-97110265D01*
X61000890Y-97004973D01*
X60970316Y-96944969D01*
X60863881Y-96810247D01*
X60697443Y-96706098D01*
X60335136Y-96588378D01*
X60229844Y-96604236D01*
X60169840Y-96634809D01*
X60095122Y-96710671D01*
X60036261Y-96891824D01*
X60052119Y-96997116D01*
X60082693Y-97057120D01*
X60158554Y-97131838D01*
X60384996Y-97205414D01*
X60490288Y-97189556D01*
X60550292Y-97158982D01*
X60625010Y-97083121D01*
X60683871Y-96901967D01*
X60668013Y-96796675D01*
X60637439Y-96736672D01*
X60561578Y-96661953D01*
X66021511Y-95642692D02*
X65844930Y-96186153D01*
X65933220Y-95914423D02*
X64982164Y-95605406D01*
X65088599Y-95740128D01*
X65149745Y-95860135D01*
X65165604Y-95965427D01*
%TO.C,D10*%
X49311004Y-95184647D02*
X48359948Y-94875630D01*
X48433523Y-94649188D01*
X48522957Y-94528038D01*
X48642964Y-94466891D01*
X48748256Y-94451033D01*
X48944125Y-94464605D01*
X49079990Y-94508751D01*
X49246428Y-94612899D01*
X49322290Y-94687618D01*
X49383437Y-94807625D01*
X49384580Y-94958205D01*
X49311004Y-95184647D01*
X49781887Y-93735418D02*
X49605306Y-94278879D01*
X49693597Y-94007149D02*
X48742540Y-93698132D01*
X48848975Y-93832854D01*
X48910122Y-93952861D01*
X48925980Y-94058153D01*
X49022127Y-92837652D02*
X49051557Y-92747075D01*
X49126276Y-92671213D01*
X49186279Y-92640640D01*
X49291571Y-92624782D01*
X49487440Y-92638354D01*
X49713882Y-92711929D01*
X49880321Y-92816078D01*
X49956182Y-92890797D01*
X49986756Y-92950800D01*
X50002614Y-93056092D01*
X49973184Y-93146669D01*
X49898465Y-93222531D01*
X49838462Y-93253104D01*
X49733170Y-93268962D01*
X49537301Y-93255390D01*
X49310859Y-93181815D01*
X49144420Y-93077666D01*
X49068559Y-93002947D01*
X49037985Y-92942944D01*
X49022127Y-92837652D01*
X55150935Y-92110628D02*
X54974354Y-92654089D01*
X55062644Y-92382359D02*
X54111588Y-92073342D01*
X54218023Y-92208064D01*
X54279169Y-92328071D01*
X54295028Y-92433363D01*
%TO.C,D11*%
X90195525Y-90905723D02*
X89607739Y-90096706D01*
X89800362Y-89956757D01*
X89943926Y-89911312D01*
X90076955Y-89932382D01*
X90171459Y-89981441D01*
X90321943Y-90107550D01*
X90405912Y-90223124D01*
X90479347Y-90405212D01*
X90496801Y-90510251D01*
X90475732Y-90643280D01*
X90388148Y-90765774D01*
X90195525Y-90905723D01*
X91428312Y-90010050D02*
X90966017Y-90345927D01*
X91197165Y-90177988D02*
X90609379Y-89368971D01*
X90616299Y-89540525D01*
X90595230Y-89673554D01*
X90546170Y-89768058D01*
X92198805Y-89450254D02*
X91736509Y-89786132D01*
X91967657Y-89618193D02*
X91379872Y-88809176D01*
X91386792Y-88980729D01*
X91365722Y-89113758D01*
X91316663Y-89208262D01*
X96931342Y-91749983D02*
X96469047Y-92085860D01*
X96700194Y-91917921D02*
X96112409Y-91108904D01*
X96119329Y-91280458D01*
X96098259Y-91413487D01*
X96049200Y-91507991D01*
%TO.C,D12*%
X106785714Y-74530380D02*
X106785714Y-73530380D01*
X107023809Y-73530380D01*
X107166666Y-73578000D01*
X107261904Y-73673238D01*
X107309523Y-73768476D01*
X107357142Y-73958952D01*
X107357142Y-74101809D01*
X107309523Y-74292285D01*
X107261904Y-74387523D01*
X107166666Y-74482761D01*
X107023809Y-74530380D01*
X106785714Y-74530380D01*
X108309523Y-74530380D02*
X107738095Y-74530380D01*
X108023809Y-74530380D02*
X108023809Y-73530380D01*
X107928571Y-73673238D01*
X107833333Y-73768476D01*
X107738095Y-73816095D01*
X108690476Y-73625619D02*
X108738095Y-73578000D01*
X108833333Y-73530380D01*
X109071428Y-73530380D01*
X109166666Y-73578000D01*
X109214285Y-73625619D01*
X109261904Y-73720857D01*
X109261904Y-73816095D01*
X109214285Y-73958952D01*
X108642857Y-74530380D01*
X109261904Y-74530380D01*
X111535714Y-79142380D02*
X110964285Y-79142380D01*
X111250000Y-79142380D02*
X111250000Y-78142380D01*
X111154761Y-78285238D01*
X111059523Y-78380476D01*
X110964285Y-78428095D01*
%TO.C,D13*%
X106785714Y-63354380D02*
X106785714Y-62354380D01*
X107023809Y-62354380D01*
X107166666Y-62402000D01*
X107261904Y-62497238D01*
X107309523Y-62592476D01*
X107357142Y-62782952D01*
X107357142Y-62925809D01*
X107309523Y-63116285D01*
X107261904Y-63211523D01*
X107166666Y-63306761D01*
X107023809Y-63354380D01*
X106785714Y-63354380D01*
X108309523Y-63354380D02*
X107738095Y-63354380D01*
X108023809Y-63354380D02*
X108023809Y-62354380D01*
X107928571Y-62497238D01*
X107833333Y-62592476D01*
X107738095Y-62640095D01*
X108642857Y-62354380D02*
X109261904Y-62354380D01*
X108928571Y-62735333D01*
X109071428Y-62735333D01*
X109166666Y-62782952D01*
X109214285Y-62830571D01*
X109261904Y-62925809D01*
X109261904Y-63163904D01*
X109214285Y-63259142D01*
X109166666Y-63306761D01*
X109071428Y-63354380D01*
X108785714Y-63354380D01*
X108690476Y-63306761D01*
X108642857Y-63259142D01*
X111535714Y-67712380D02*
X110964285Y-67712380D01*
X111250000Y-67712380D02*
X111250000Y-66712380D01*
X111154761Y-66855238D01*
X111059523Y-66950476D01*
X110964285Y-66998095D01*
%TO.C,D14*%
X106785714Y-51670380D02*
X106785714Y-50670380D01*
X107023809Y-50670380D01*
X107166666Y-50718000D01*
X107261904Y-50813238D01*
X107309523Y-50908476D01*
X107357142Y-51098952D01*
X107357142Y-51241809D01*
X107309523Y-51432285D01*
X107261904Y-51527523D01*
X107166666Y-51622761D01*
X107023809Y-51670380D01*
X106785714Y-51670380D01*
X108309523Y-51670380D02*
X107738095Y-51670380D01*
X108023809Y-51670380D02*
X108023809Y-50670380D01*
X107928571Y-50813238D01*
X107833333Y-50908476D01*
X107738095Y-50956095D01*
X109166666Y-51003714D02*
X109166666Y-51670380D01*
X108928571Y-50622761D02*
X108690476Y-51337047D01*
X109309523Y-51337047D01*
X111535714Y-56282380D02*
X110964285Y-56282380D01*
X111250000Y-56282380D02*
X111250000Y-55282380D01*
X111154761Y-55425238D01*
X111059523Y-55520476D01*
X110964285Y-55568095D01*
%TO.C,D15*%
X123699719Y-89478244D02*
X124287504Y-88669227D01*
X124480127Y-88809176D01*
X124567711Y-88931670D01*
X124588781Y-89064699D01*
X124571326Y-89169738D01*
X124497892Y-89351826D01*
X124413922Y-89467400D01*
X124263439Y-89593509D01*
X124168934Y-89642568D01*
X124035906Y-89663638D01*
X123892342Y-89618193D01*
X123699719Y-89478244D01*
X124932507Y-90373917D02*
X124470211Y-90038040D01*
X124701359Y-90205978D02*
X125289144Y-89396961D01*
X125128126Y-89456556D01*
X124995097Y-89477625D01*
X124890058Y-89460170D01*
X126252260Y-90096706D02*
X125867013Y-89816808D01*
X125548591Y-90174064D01*
X125615106Y-90163529D01*
X125720145Y-90180984D01*
X125912768Y-90320933D01*
X125961827Y-90415437D01*
X125972362Y-90481952D01*
X125954907Y-90586991D01*
X125814958Y-90779614D01*
X125720454Y-90828673D01*
X125653940Y-90839208D01*
X125548901Y-90821753D01*
X125356277Y-90681804D01*
X125307218Y-90587300D01*
X125296683Y-90520786D01*
X124789563Y-95906464D02*
X124327268Y-95570587D01*
X124558416Y-95738525D02*
X125146201Y-94929508D01*
X124985182Y-94989103D01*
X124852154Y-95010172D01*
X124747115Y-94992717D01*
%TO.C,D16*%
X143954525Y-99986939D02*
X144905581Y-99677922D01*
X144979157Y-99904364D01*
X144978014Y-100054944D01*
X144916867Y-100174951D01*
X144841005Y-100249670D01*
X144674567Y-100353818D01*
X144538702Y-100397964D01*
X144342833Y-100411536D01*
X144237541Y-100395677D01*
X144117534Y-100334531D01*
X144028100Y-100213381D01*
X143954525Y-99986939D01*
X144425408Y-101436168D02*
X144248827Y-100892707D01*
X144337117Y-101164437D02*
X145288174Y-100855420D01*
X145122878Y-100808989D01*
X145002871Y-100747842D01*
X144928153Y-100671980D01*
X145641336Y-101942342D02*
X145582476Y-101761188D01*
X145507757Y-101685327D01*
X145447754Y-101654753D01*
X145282458Y-101608322D01*
X145086589Y-101621894D01*
X144724282Y-101739614D01*
X144648420Y-101814333D01*
X144617847Y-101874336D01*
X144601989Y-101979628D01*
X144660849Y-102160782D01*
X144735568Y-102236644D01*
X144795571Y-102267217D01*
X144900863Y-102283075D01*
X145127305Y-102209500D01*
X145203167Y-102134781D01*
X145233740Y-102074778D01*
X145249599Y-101969486D01*
X145190738Y-101788332D01*
X145116020Y-101712470D01*
X145056016Y-101681897D01*
X144950724Y-101666039D01*
X141293104Y-105900084D02*
X141116523Y-105356623D01*
X141204814Y-105628354D02*
X142155870Y-105319337D01*
X141990575Y-105272905D01*
X141870568Y-105211759D01*
X141795849Y-105135897D01*
%TO.C,D17*%
X155130525Y-96938939D02*
X156081581Y-96629922D01*
X156155157Y-96856364D01*
X156154014Y-97006944D01*
X156092867Y-97126951D01*
X156017005Y-97201670D01*
X155850567Y-97305818D01*
X155714702Y-97349964D01*
X155518833Y-97363536D01*
X155413541Y-97347677D01*
X155293534Y-97286531D01*
X155204100Y-97165381D01*
X155130525Y-96938939D01*
X155601408Y-98388168D02*
X155424827Y-97844707D01*
X155513117Y-98116437D02*
X156464174Y-97807420D01*
X156298878Y-97760989D01*
X156178871Y-97699842D01*
X156104153Y-97623980D01*
X156655470Y-98396169D02*
X156861481Y-99030207D01*
X155777989Y-98931628D01*
X152163680Y-102368020D02*
X151987099Y-101824559D01*
X152075390Y-102096290D02*
X153026446Y-101787273D01*
X152861151Y-101740841D01*
X152741144Y-101679695D01*
X152666425Y-101603833D01*
%TO.C,D18*%
X165798525Y-92874939D02*
X166749581Y-92565922D01*
X166823157Y-92792364D01*
X166822014Y-92942944D01*
X166760867Y-93062951D01*
X166685005Y-93137670D01*
X166518567Y-93241818D01*
X166382702Y-93285964D01*
X166186833Y-93299536D01*
X166081541Y-93283677D01*
X165961534Y-93222531D01*
X165872100Y-93101381D01*
X165798525Y-92874939D01*
X166269408Y-94324168D02*
X166092827Y-93780707D01*
X166181117Y-94052437D02*
X167132174Y-93743420D01*
X166966878Y-93696989D01*
X166846871Y-93635842D01*
X166772153Y-93559980D01*
X166989450Y-94691047D02*
X167005308Y-94585755D01*
X167035881Y-94525752D01*
X167111743Y-94451033D01*
X167157031Y-94436318D01*
X167262323Y-94452176D01*
X167322327Y-94482750D01*
X167397045Y-94558611D01*
X167455906Y-94739765D01*
X167440048Y-94845057D01*
X167409474Y-94905060D01*
X167333613Y-94979779D01*
X167288324Y-94994494D01*
X167183032Y-94978636D01*
X167123029Y-94948063D01*
X167048310Y-94872201D01*
X166989450Y-94691047D01*
X166914731Y-94615186D01*
X166854728Y-94584612D01*
X166749436Y-94568754D01*
X166568282Y-94627614D01*
X166492420Y-94702333D01*
X166461847Y-94762336D01*
X166445989Y-94867628D01*
X166504849Y-95048782D01*
X166579568Y-95124644D01*
X166639571Y-95155217D01*
X166744863Y-95171075D01*
X166926017Y-95112215D01*
X167001879Y-95037496D01*
X167032452Y-94977493D01*
X167048310Y-94872201D01*
X163034256Y-98835956D02*
X162857675Y-98292495D01*
X162945966Y-98564226D02*
X163897022Y-98255209D01*
X163731727Y-98208777D01*
X163611720Y-98147631D01*
X163537001Y-98071769D01*
%TO.C,D19*%
X135671005Y-123124647D02*
X134719949Y-122815630D01*
X134793524Y-122589188D01*
X134882958Y-122468038D01*
X135002965Y-122406891D01*
X135108257Y-122391033D01*
X135304126Y-122404605D01*
X135439991Y-122448751D01*
X135606429Y-122552899D01*
X135682291Y-122627618D01*
X135743438Y-122747625D01*
X135744581Y-122898205D01*
X135671005Y-123124647D01*
X136141888Y-121675418D02*
X135965307Y-122218879D01*
X136053598Y-121947149D02*
X135102541Y-121638132D01*
X135208976Y-121772854D01*
X135270123Y-121892861D01*
X135285981Y-121998153D01*
X136289039Y-121222534D02*
X136347900Y-121041381D01*
X136332042Y-120936089D01*
X136301468Y-120876085D01*
X136195033Y-120741363D01*
X136028595Y-120637214D01*
X135666287Y-120519494D01*
X135560996Y-120535352D01*
X135500992Y-120565925D01*
X135426273Y-120641787D01*
X135367413Y-120822940D01*
X135383271Y-120928232D01*
X135413845Y-120988236D01*
X135489706Y-121062954D01*
X135716148Y-121136530D01*
X135821440Y-121120672D01*
X135881444Y-121090098D01*
X135956162Y-121014237D01*
X136015023Y-120833083D01*
X135999165Y-120727791D01*
X135968591Y-120667788D01*
X135892730Y-120593069D01*
X130482239Y-123421755D02*
X130305658Y-123965216D01*
X130393948Y-123693486D02*
X129442892Y-123384469D01*
X129549327Y-123519191D01*
X129610473Y-123639198D01*
X129626332Y-123744490D01*
%TO.C,D20*%
X130327525Y-145769724D02*
X129739739Y-144960707D01*
X129932362Y-144820758D01*
X130075926Y-144775313D01*
X130208955Y-144796383D01*
X130303459Y-144845442D01*
X130453943Y-144971551D01*
X130537912Y-145087125D01*
X130611347Y-145269213D01*
X130628801Y-145374252D01*
X130607732Y-145507281D01*
X130520148Y-145629775D01*
X130327525Y-145769724D01*
X130566211Y-144477960D02*
X130576746Y-144411446D01*
X130625806Y-144316942D01*
X130818429Y-144176993D01*
X130923468Y-144159538D01*
X130989982Y-144170073D01*
X131084486Y-144219132D01*
X131140466Y-144296182D01*
X131185910Y-144439745D01*
X131059492Y-145237918D01*
X131560312Y-144874051D01*
X131473347Y-143701167D02*
X131550396Y-143645187D01*
X131655435Y-143627732D01*
X131721950Y-143638267D01*
X131816454Y-143687327D01*
X131966938Y-143813435D01*
X132106887Y-144006058D01*
X132180321Y-144188147D01*
X132197776Y-144293186D01*
X132187241Y-144359700D01*
X132138182Y-144454204D01*
X132061132Y-144510184D01*
X131956093Y-144527639D01*
X131889579Y-144517104D01*
X131795075Y-144468044D01*
X131644591Y-144341936D01*
X131504642Y-144149313D01*
X131431208Y-143967224D01*
X131413753Y-143862185D01*
X131424288Y-143795671D01*
X131473347Y-143701167D01*
X126034656Y-142865720D02*
X125572361Y-143201597D01*
X125803508Y-143033658D02*
X125215723Y-142224641D01*
X125222643Y-142396195D01*
X125201573Y-142529224D01*
X125152514Y-142623728D01*
%TO.C,D21*%
X136931526Y-154913723D02*
X136343740Y-154104706D01*
X136536363Y-153964757D01*
X136679927Y-153919312D01*
X136812956Y-153940382D01*
X136907460Y-153989441D01*
X137057944Y-154115550D01*
X137141913Y-154231124D01*
X137215348Y-154413212D01*
X137232802Y-154518251D01*
X137211733Y-154651280D01*
X137124149Y-154773774D01*
X136931526Y-154913723D01*
X137170212Y-153621959D02*
X137180747Y-153555445D01*
X137229807Y-153460941D01*
X137422430Y-153320992D01*
X137527469Y-153303537D01*
X137593983Y-153314072D01*
X137688487Y-153363131D01*
X137744467Y-153440181D01*
X137789911Y-153583744D01*
X137663493Y-154381917D01*
X138164313Y-154018050D01*
X138934806Y-153458254D02*
X138472510Y-153794132D01*
X138703658Y-153626193D02*
X138115873Y-152817176D01*
X138122793Y-152988729D01*
X138101723Y-153121758D01*
X138052664Y-153216262D01*
X132753042Y-152112784D02*
X132290747Y-152448661D01*
X132521894Y-152280722D02*
X131934109Y-151471705D01*
X131941029Y-151643259D01*
X131919959Y-151776288D01*
X131870900Y-151870792D01*
%TO.C,D22*%
X143535525Y-164057723D02*
X142947739Y-163248706D01*
X143140362Y-163108757D01*
X143283926Y-163063312D01*
X143416955Y-163084382D01*
X143511459Y-163133441D01*
X143661943Y-163259550D01*
X143745912Y-163375124D01*
X143819347Y-163557212D01*
X143836801Y-163662251D01*
X143815732Y-163795280D01*
X143728148Y-163917774D01*
X143535525Y-164057723D01*
X143774211Y-162765959D02*
X143784746Y-162699445D01*
X143833806Y-162604941D01*
X144026429Y-162464992D01*
X144131468Y-162447537D01*
X144197982Y-162458072D01*
X144292486Y-162507131D01*
X144348466Y-162584181D01*
X144393910Y-162727744D01*
X144267492Y-163525917D01*
X144768312Y-163162050D01*
X144544704Y-162206164D02*
X144555238Y-162139650D01*
X144604298Y-162045145D01*
X144796921Y-161905196D01*
X144901960Y-161887742D01*
X144968474Y-161898276D01*
X145062979Y-161947336D01*
X145118958Y-162024385D01*
X145164403Y-162167949D01*
X145037985Y-162966121D01*
X145538805Y-162602254D01*
X139471427Y-161359848D02*
X139009132Y-161695725D01*
X139240279Y-161527786D02*
X138652494Y-160718769D01*
X138659414Y-160890323D01*
X138638344Y-161023352D01*
X138589285Y-161117856D01*
%TD*%
M02*
