M48
; DRILL file {KiCad 5.1.12-84ad8e8a86~92~ubuntu20.04.1} date Mon 29 Nov 2021 04:42:04 PM CET
; FORMAT={-:-/ absolute / inch / decimal}
; #@! TF.CreationDate,2021-11-29T16:42:04+01:00
; #@! TF.GenerationSoftware,Kicad,Pcbnew,5.1.12-84ad8e8a86~92~ubuntu20.04.1
FMAT,2
INCH
T1C0.0157
%
G90
G05
T1
X2.0032Y-3.858
X2.1751Y-3.915
X2.4312Y-3.9971
X2.6031Y-4.0541
X2.8592Y-4.1361
X2.9148Y-4.5114
X2.9952Y-6.4049
X3.0311Y-4.1931
X3.1025Y-6.2591
X3.1811Y-4.598
X3.2597Y-6.0409
X3.3218Y-4.8909
X3.367Y-5.895
X3.4944Y-4.836
X3.5242Y-5.6768
X3.5441Y-3.7008
X3.6315Y-5.5309
X3.6497Y-3.8479
X3.7792Y-3.1965
X3.7792Y-3.4765
X3.8592Y-4.8765
X3.8592Y-4.9365
X3.8592Y-4.9965
X3.8983Y-5.7399
X4.0629Y-5.5134
X4.0894Y-4.0624
X4.0894Y-4.5624
X4.1179Y-2.3087
X4.1179Y-2.7587
X4.1179Y-3.2087
X4.119Y-2.1276
X4.119Y-2.5776
X4.119Y-3.0276
X4.1992Y-4.0465
X4.2705Y-4.0635
X4.2705Y-4.5635
X4.385Y-5.4701
X4.3861Y-5.289
X4.6373Y-3.6903
X4.7447Y-3.5444
X5.0307Y-3.6987
X5.0894Y-5.3733
X5.0924Y-4.5809
X5.195Y-5.5205
X5.206Y-4.9576
X5.2643Y-4.6379
X5.2969Y-3.6122
X5.3539Y-5.7374
X5.3706Y-5.1841
X5.39Y-3.9381
X5.4595Y-5.8845
X5.5626Y-3.8831
X5.6184Y-6.1014
X5.724Y-6.2486
X5.818Y-3.799
X5.9905Y-3.7441
X6.2459Y-3.6599
X6.4185Y-3.605
T0
M30
